<svg xmlns="http://www.w3.org/2000/svg" viewBox="-2 -10 100 90"><defs><style>.cls-1,.cls-2{fill:#fff;}.cls-2{fill-rule:evenodd;}</style></defs><title>contact02</title><g id="レイヤー_2" data-name="レイヤー 2"><g id="レイヤー_1-2" data-name="レイヤー 1"><path class="cls-1" d="M55.82,0V41h34V0Zm32,38h-29V3h29Z"/><rect class="cls-1" x="61.76" y="7.09" width="23.3" height="2.15"/><rect class="cls-1" x="61.76" y="11.06" width="23.3" height="2.15"/><polygon class="cls-1" points="91.62 5.1 91.62 7.15 93.55 7.15 93.55 43.73 63.56 43.73 63.56 42.3 61.51 42.3 61.51 45.78 95.6 45.78 95.6 5.1 91.62 5.1"/><path class="cls-2" d="M31.16,61.29H27.61c-.47-3.06-.95-14.67-1.42-17.74h-.12c-.47,3.05-.93,14.65-1.41,17.73H20.75v-.55c0-4.63,0-17.81,0-22.45a.86.86,0,0,0-.45-.82,4.67,4.67,0,0,1-2.19-4q0-3.83,0-7.65a4.86,4.86,0,0,1,5-5h5.73a4.86,4.86,0,0,1,5,5q0,3.8,0,7.6a4.65,4.65,0,0,1-2.23,4,.88.88,0,0,0-.44.84c0,4.6,0,17.75,0,22.35C31.19,60.86,31.17,61.06,31.16,61.29Z"/><path class="cls-2" d="M5.12,57,5,57.18c-1,1.09-1,2,.13,3A10.44,10.44,0,0,0,8.75,62a45.14,45.14,0,0,0,9.49,1.78,80.3,80.3,0,0,0,10.29.32,56.19,56.19,0,0,0,14.08-1.89A24.5,24.5,0,0,0,46,60.83a4.74,4.74,0,0,0,1.28-.95,1.63,1.63,0,0,0,0-2.53,1.15,1.15,0,0,1-.28-.3c1.77.72,3.5,1.5,4.6,3.16a2.65,2.65,0,0,1-.16,3.29,8.73,8.73,0,0,1-3.26,2.44,33.3,33.3,0,0,1-8.77,2.66,72.93,72.93,0,0,1-14.45,1.13,63.49,63.49,0,0,1-17-2.26A18.64,18.64,0,0,1,2.26,65,7.85,7.85,0,0,1,.64,63.42a2.56,2.56,0,0,1,0-3.4,8.73,8.73,0,0,1,1.79-1.64c.82-.55,1.74-1,2.61-1.44A.61.61,0,0,0,5.12,57Z"/><path class="cls-2" d="M13.2,42.45c-.1.6-.21,1.2-.31,1.8C12.57,46.36,12.26,57,12,59.11a.42.42,0,0,1-.48.42c-.86,0-1.73,0-2.6,0-.46,0-.5-.2-.5-.56,0-3.2,0-14.93,0-18.13,0-1.08,0-2.15,0-3.23A.86.86,0,0,0,8,37,4.48,4.48,0,0,1,6,33c0-2.34,0-4.68,0-7a4.3,4.3,0,0,1,4-4.18c.51,0,1-.06,1.55-.07h5.32c-.13.28-.19.42-.26.54a7.35,7.35,0,0,0-.88,3.49c0,2.55,0,5.1,0,7.66a7.32,7.32,0,0,0,1.87,4.89,1.3,1.3,0,0,1,.3.77c0,3.78,0,16.11,0,19.9,0,.45-.11.61-.58.59-.74,0-1.49,0-2.24,0-.29,0-.42-.08-.46-.4-.37-2.48-.75-13.5-1.13-16,0-.23-.1-.46-.15-.7Z"/><path class="cls-2" d="M35.19,21.7h3.34c1.19,0,2.39,0,3.58.08A4.2,4.2,0,0,1,46,25.49c.14,1.79.1,3.6.11,5.4A28.2,28.2,0,0,1,46,33.8a4,4,0,0,1-1.85,3.05,1.11,1.11,0,0,0-.54,1.06c0,4.13,0,16.81,0,20.94,0,.67,0,.67-.69.67s-1.53,0-2.29,0c-.38,0-.54-.11-.59-.46-.21-1.44-.43-11.42-.64-12.86l-.54-3.59c0-.06-.06-.11-.18-.31-.11.64-.2,1.13-.28,1.62-.32,2.16-.64,12.86-1,15-.06.43-.22.63-.7.6a18,18,0,0,0-2.08,0c-.43,0-.53-.15-.52-.54,0-2.76,0-14.07,0-16.83,0-1.06,0-2.11,0-3.17a1.25,1.25,0,0,1,.28-.74,7.13,7.13,0,0,0,1.84-4.84c0-2.53,0-5.07,0-7.6a7.15,7.15,0,0,0-.85-3.54C35.39,22.15,35.34,22,35.19,21.7Z"/><path class="cls-2" d="M31.25,15.39c0,3.23-2.27,5.84-5.1,5.85S21,18.66,21,15.45s2.29-5.84,5.11-5.86S31.24,12.18,31.25,15.39Z"/><path class="cls-2" d="M13.28,22.2c-2.59,0-4.68-2.33-4.69-5.25s2.1-5.36,4.65-5.33c2.89,0,4.71,2.71,4.67,5.29C17.87,19.88,15.9,22.18,13.28,22.2Z"/><path class="cls-2" d="M38.72,22.2c-2.49.06-4.75-2.4-4.63-5.61.1-2.65,2.29-5,4.71-5,2.81.09,4.74,2.7,4.62,5.65A5,5,0,0,1,38.72,22.2Z"/></g></g></svg>