<svg xmlns="http://www.w3.org/2000/svg" viewBox="-10 -10 100 90"><defs><style>.cls-1,.cls-2{fill:#fff;}.cls-1{fill-rule:evenodd;}</style></defs><title>contact04</title><g id="レイヤー_2" data-name="レイヤー 2"><g id="レイヤー_1-2" data-name="レイヤー 1"><g id="w9GtBV"><path class="cls-1" d="M28.12,69.42a2.57,2.57,0,0,1-.95-1.35c-.27-.78-.59-1.54-.91-2.31a3.12,3.12,0,0,0-1.61-1.61A4.11,4.11,0,0,0,20.7,64c-.6.32-1.22.59-1.84.88A1.57,1.57,0,0,1,17,64.56c-.45-.44-.9-.89-1.34-1.34a1.58,1.58,0,0,1-.31-1.83c.38-.85.77-1.69,1.13-2.54a3.75,3.75,0,0,0-.26-3.07,3.89,3.89,0,0,0-2.49-2.2c-.64-.21-1.28-.44-1.92-.68a1.57,1.57,0,0,1-1.08-1.52q0-.95,0-1.89a1.64,1.64,0,0,1,1.15-1.58c.91-.35,1.8-.74,2.72-1.07,1.51-.54,2.58-3.56,1.9-4.88-.39-.75-.7-1.54-1.06-2.3a1.66,1.66,0,0,1,.38-2.2l1.16-1.16A1.57,1.57,0,0,1,18.88,36a27.47,27.47,0,0,0,2.94,1.2,4.16,4.16,0,0,0,4.44-2c.39-.84.69-1.73,1-2.6a1.68,1.68,0,0,1,1.63-1.22c.58,0,1.17,0,1.75,0a1.7,1.7,0,0,1,1.7,1.27c.29.82.63,1.64.95,2.45a3.5,3.5,0,0,0,2.12,1.9,3.85,3.85,0,0,0,3.36,0c.64-.34,1.31-.63,2-.94a1.55,1.55,0,0,1,1.87.31l1.27,1.27a1.61,1.61,0,0,1,.34,2.08c-.34.73-.67,1.48-1,2.22a4,4,0,0,0,.19,3.26,4.18,4.18,0,0,0,2.65,2.23c.54.21,1.09.39,1.64.59a1.63,1.63,0,0,1,1.22,1.67c0,.6,0,1.2,0,1.79a1.62,1.62,0,0,1-1.16,1.57c-.55.2-1.1.4-1.65.57A4.43,4.43,0,0,0,43,57.23a3.05,3.05,0,0,0,.26,1.84c.33.76.69,1.5,1,2.26a1.53,1.53,0,0,1-.34,1.94c-.43.44-.86.88-1.3,1.31a1.58,1.58,0,0,1-1.87.33c-.85-.38-1.69-.77-2.55-1.12a3.26,3.26,0,0,0-2.42,0A4,4,0,0,0,33,66.46c-.14.46-.35.9-.48,1.36a3,3,0,0,1-1,1.6Zm1.67-10.93a8.08,8.08,0,1,0-8.06-8.07A8.07,8.07,0,0,0,29.79,58.49Z"/><path class="cls-1" d="M17.47,34.21C16.79,34.1,16.3,34,15.8,34a2.19,2.19,0,0,0-2.27,1.79,2.57,2.57,0,0,0,0,.4c-.11,1.58-.13,1.6-1.69,1.93a.82.82,0,0,1-.9-.35c-.23-.32-.48-.64-.69-1A2.22,2.22,0,0,0,7,36.38c-.22.21-.47.38-.68.58A1,1,0,0,1,5,37.11l-.56-.32a1,1,0,0,1-.51-1.18c.08-.39.12-.78.19-1.17a2.21,2.21,0,0,0-2-2.37H1.89C.4,32,.32,31.89,0,30.42a.87.87,0,0,1,.39-1c.35-.24.69-.51,1.05-.75a2.22,2.22,0,0,0,.29-3c-.25-.26-.47-.56-.7-.84a1.15,1.15,0,0,1-.21-.33c-.3-.78.79-2.09,1.6-2,.43.06.85.17,1.28.19a2.16,2.16,0,0,0,2.28-2c0-.35.06-.7.1-1a1,1,0,0,1,0-.25c.29-.74,1-.63,1.6-.81a.78.78,0,0,1,.93.41c.23.34.49.67.72,1a2.23,2.23,0,0,0,3,.37c.28-.26.58-.5.88-.73a1.07,1.07,0,0,1,.37-.24A1.75,1.75,0,0,1,15.57,21c-.06.45-.17.89-.19,1.33a2.16,2.16,0,0,0,2,2.26l1.09.1a.84.84,0,0,1,.8.64c0,.06,0,.12.05.19.37,1.33.37,1.33-.75,2.11A2.43,2.43,0,0,0,17.36,29a2.18,2.18,0,0,0,.47,2.09c.07.07.12.15.19.23.86,1,1,1,.09,2.4A1.84,1.84,0,0,1,17.47,34.21ZM9.71,32.55a4.21,4.21,0,1,0-4.16-4.22A4.22,4.22,0,0,0,9.71,32.55Z"/></g><path class="cls-2" d="M78,2.41a5.17,5.17,0,0,1,.71,0,6.06,6.06,0,0,1,.06,1V40.61c0,2.19-.5,3.31-.75,3.53H48.35l-.13-.3A4.13,4.13,0,0,1,48,41.19l.42-.95c.24-.56.49-1.12.74-1.67a4.27,4.27,0,0,0-.9-5.18c-.32-.33-.66-.65-1-1l-.59-.57a4.42,4.42,0,0,0-3.07-1.27,4.52,4.52,0,0,0-2,.44c-.28.13-.62.27-1,.41-.56.23-1.13.47-1.68.75a2.35,2.35,0,0,1-1,.22,3.56,3.56,0,0,1-.91-.12V3.42c.18-.34,1.67-1,3.77-1H78M78,0H40.78C38.23,0,34.6.87,34.6,3.42V34.23a3.73,3.73,0,0,1,1.07.12,6,6,0,0,0,2.25.45,4.68,4.68,0,0,0,2.15-.49c.77-.4,1.76-.75,2.55-1.12a2.39,2.39,0,0,1,1-.22,2,2,0,0,1,1.39.6c.5.49,1,1,1.55,1.51A1.91,1.91,0,0,1,47,37.56c-.41.88-.79,1.77-1.18,2.65A6.33,6.33,0,0,0,46,44.76c.19.44.44,1,.72,1.78H78c2.55,0,3.18-3.38,3.18-5.93V3.42C81.15.87,80.52,0,78,0Z"/><path class="cls-2" d="M71.19,26.22H75v.17H74v8H75v.17H70.77v-.17h1.49v-8H71.19Z"/><polygon class="cls-2" points="50.51 26.39 50.51 26.22 46.67 26.22 46.67 26.39 47.74 26.39 47.74 30.21 45.18 30.21 45.18 30.38 47.74 30.38 47.74 34.36 46.67 34.36 46.67 34.53 50.51 34.53 50.51 34.36 49.43 34.36 49.43 26.39 50.51 26.39"/><path class="cls-2" d="M44.18,26.44h0v-.22H39.61v2.14h.16c.45-1.59,1.08-2,2.24-2h.48v8H41.41v.17h3.84v-.17H44.18Z"/><path class="cls-2" d="M75.13,31.24h2.8l1.35,3.12H78.19v.17h3.92v-.17h-1L77.44,25.9l-.9,2.1,1.33,3.08H75.18Z"/><path class="cls-2" d="M57.18,33.81a3,3,0,0,1-2.1.72c-2.24,0-2.51-2.22-2.51-3.91,0-.4,0-.65,0-.9l0-.26c.12-1.66.55-3.27,2.26-3.27a1.61,1.61,0,0,1,1.2.44l0,0a1.73,1.73,0,0,1,.31.45,2.17,2.17,0,0,1,.16.49,2.93,2.93,0,0,1,.07.69,1.77,1.77,0,0,1-.11.59,1.94,1.94,0,0,1-.48.79,2.24,2.24,0,0,1-1.16.7,10.39,10.39,0,0,1-1.81.12v.17h.84s.47,0,.85-.06a4.4,4.4,0,0,0,1.46-.48,2.6,2.6,0,0,0,.86-.65c.39-.45.81-.68.81-1.12a1.45,1.45,0,0,0-.15-.79l0-.05A3.28,3.28,0,0,0,55,26a4.42,4.42,0,0,0-4.28,4.37,4.15,4.15,0,0,0,4.39,4.29A3.28,3.28,0,0,0,57.33,34Z"/><path class="cls-2" d="M70.78,34.53v-.17c-.54,0-.54-.25-.69-2.2-.13-1.68-1-1.84-2.55-2.11V30c1-.08,2.3-.56,2.3-1.81,0-1.55-1.64-2-2.86-2H64.4v.17h2.16c1.07,0,1.48.57,1.48,1.93,0,.85-.12,1.68-1.52,1.68H66v.16h.78c1.44,0,1.5,1.23,1.56,2.5a1.78,1.78,0,0,0,1.81,1.88Z"/><path class="cls-2" d="M60.87,26a4.34,4.34,0,1,0,4.33,4.34A4.34,4.34,0,0,0,60.87,26Zm.87,5.21c-1.7,1.69-3.47,2.66-4,2.17s.5-2.24,2.2-3.92,3.47-2.66,3.95-2.17S63.44,29.57,61.74,31.25Z"/></g></g></svg>