<svg xmlns="http://www.w3.org/2000/svg" viewBox="0 0 140 140"><defs><style>.cls-1{fill:#fff;}.cls-2{fill:#00579d;}</style></defs><title>contact</title><g id="レイヤー_2" data-name="レイヤー 2"><g id="レイヤー_1-2" data-name="レイヤー 1"><circle class="cls-1" cx="70" cy="70" r="70"/><g id="Mail"><path class="cls-2" d="M102.1,40.66H37.9a4.58,4.58,0,0,0-4.59,4.59V95.69a4.58,4.58,0,0,0,4.59,4.59h64.2a4.58,4.58,0,0,0,4.59-4.59V45.25A4.58,4.58,0,0,0,102.1,40.66ZM99.81,93.4H40.19V58.32L67.05,80.86a4.57,4.57,0,0,0,5.9,0L99.81,58.32Zm0-44.06L70,74.35l-29.81-25v-1.8H99.81Z"/></g></g></g></svg>