<svg xmlns="http://www.w3.org/2000/svg" viewBox="-15 -4 100 90"><defs><style>.cls-1{fill:#fff;}</style></defs><title>contact03</title><g id="レイヤー_2" data-name="レイヤー 2"><g id="レイヤー_1-2" data-name="レイヤー 1"><path class="cls-1" d="M35.75,5.64a8.24,8.24,0,0,0-8.2,8.46,8.29,8.29,0,0,0,5,7.54v4.68a1.67,1.67,0,0,0,1.62,1.88,1.77,1.77,0,0,0,1.75,1.88,1.82,1.82,0,0,0,1.81-1.88,1.83,1.83,0,0,0,1.82-1.88V21.64c2-1.39,4.7-4.23,4.7-7.54A8.46,8.46,0,0,0,35.75,5.64Zm.76,22.07h-2v-2h2ZM38.11,20l-1.6.52v2.23h-2V20.48L33.15,20a6.68,6.68,0,0,1-3.82-5.86,6.52,6.52,0,0,1,6.5-6.58,6.32,6.32,0,0,1,6.25,6.58A6.85,6.85,0,0,1,38.11,20Z"/><path class="cls-1" d="M34.81,3.76V.94a.94.94,0,1,1,1.88,0V3.76a.94.94,0,0,1-1.88,0Z"/><path class="cls-1" d="M43.89,9.4a.93.93,0,0,1,.34-1.28L46.67,6.7A1,1,0,0,1,48,7.05a.94.94,0,0,1-.35,1.28L45.17,9.74a.9.9,0,0,1-.47.13A.94.94,0,0,1,43.89,9.4Z"/><path class="cls-1" d="M40.1,4.68l1.41-2.45a.94.94,0,0,1,1.29-.34.93.93,0,0,1,.34,1.28L41.73,5.62a.94.94,0,0,1-.81.47A1,1,0,0,1,40.45,6,.94.94,0,0,1,40.1,4.68Z"/><path class="cls-1" d="M27.61,18.8a.94.94,0,0,1-.35,1.28l-2.44,1.41a.9.9,0,0,1-.47.13.94.94,0,0,1-.47-1.75l2.44-1.41A.94.94,0,0,1,27.61,18.8Z"/><path class="cls-1" d="M25.41,15H22.59a.94.94,0,0,1,0-1.88h2.82a.94.94,0,1,1,0,1.88Z"/><path class="cls-1" d="M23.54,7.05a.94.94,0,0,1,1.28-.35l2.45,1.42a.94.94,0,0,1-.48,1.75.87.87,0,0,1-.46-.13L23.88,8.33A.93.93,0,0,1,23.54,7.05Z"/><path class="cls-1" d="M28.35,3.17A.94.94,0,0,1,30,2.23l1.41,2.44A.94.94,0,0,1,31,6a1,1,0,0,1-.47.12.94.94,0,0,1-.81-.47Z"/><path class="cls-1" d="M48,21.15a1,1,0,0,1-.82.47.9.9,0,0,1-.47-.13l-2.44-1.41a.94.94,0,0,1-.35-1.28,1,1,0,0,1,1.29-.35l2.44,1.42A.93.93,0,0,1,48,21.15Z"/><path class="cls-1" d="M49.85,14.1a1,1,0,0,1-.94.94H46.09a.94.94,0,1,1,0-1.88h2.82A1,1,0,0,1,49.85,14.1Z"/><path class="cls-1" d="M55.89,65.38a2.76,2.76,0,0,1,1.57,2.68V80a3.08,3.08,0,0,1-.71,2,2.22,2.22,0,0,1-1.81.87H16.24a2.17,2.17,0,0,1-1.74-.87,3.14,3.14,0,0,1-.71-2v-12a2.77,2.77,0,0,1,1.58-2.68l10.88-5,4.26-2a11.64,11.64,0,0,1-4.58-5.2,14.09,14.09,0,0,1-1.49-6.39,12.59,12.59,0,0,1,.15-2c.11-.63.24-1.23.4-1.81a13.45,13.45,0,0,1,4-6.62,9.61,9.61,0,0,1,6.66-2.6,9.72,9.72,0,0,1,6.78,2.68,13.33,13.33,0,0,1,3.94,6.78,18.36,18.36,0,0,1,.39,3.54,15.14,15.14,0,0,1-1.26,6.07,11.48,11.48,0,0,1-4.57,5.36l4.49,2.13,10.49,5Zm-42.1-3.31a6.11,6.11,0,0,0-2.72,2.41,6.78,6.78,0,0,0-1,3.58V78.23H2a1.75,1.75,0,0,1-1.42-.67A2.55,2.55,0,0,1,0,75.87V66.25A2.08,2.08,0,0,1,1.26,64l12.22-5.67a9.87,9.87,0,0,1-3.55-3.82A11.57,11.57,0,0,1,8.59,49a11.76,11.76,0,0,1,.71-4.06,10.81,10.81,0,0,1,1.93-3.35,9.3,9.3,0,0,1,2.84-2.25,7.62,7.62,0,0,1,3.51-.82,7,7,0,0,1,2.36.39,11,11,0,0,1,2.13,1,18.22,18.22,0,0,0-1.34,6.86,17.85,17.85,0,0,0,.79,5.32,16.26,16.26,0,0,0,2.21,4.61,8,8,0,0,1-1.82,1.5Zm56.44,2a2.26,2.26,0,0,1,1.26,2.21v9.62a2.55,2.55,0,0,1-.55,1.69,1.75,1.75,0,0,1-1.42.67H61.17V68.06a6.7,6.7,0,0,0-1-3.58,6.14,6.14,0,0,0-2.64-2.41l-7.8-3.7a8.35,8.35,0,0,1-2.13-1.81A17.6,17.6,0,0,0,49.7,52a18,18,0,0,0,.75-5.24,18.58,18.58,0,0,0-.32-3.47,17.54,17.54,0,0,0-.94-3.23,10,10,0,0,1,2.2-1.14,7.06,7.06,0,0,1,2.45-.43,7.8,7.8,0,0,1,3.54.82,9,9,0,0,1,2.88,2.25,10.62,10.62,0,0,1,1.93,3.35A11.53,11.53,0,0,1,62.9,49a11.29,11.29,0,0,1-1.34,5.48,10.22,10.22,0,0,1-3.39,3.82L70.23,64Z"/></g></g></svg>