<svg xmlns="http://www.w3.org/2000/svg" viewBox="0 0 192.91 40"><defs><style>.cls-1{fill:#fff;}</style></defs><title>logo</title><g id="レイヤー_2" data-name="レイヤー 2"><g id="レイヤー_1-2" data-name="レイヤー 1"><path class="cls-1" d="M143.34,1.48h17.42v.75h-4.87V38.44h4.87v.74H141.44v-.74h6.77V2.23h-4.87Z"/><polygon class="cls-1" points="49.44 2.23 49.44 1.48 32.02 1.48 32.02 2.23 36.89 2.23 36.89 19.59 25.25 19.59 25.25 20.34 36.89 20.34 36.89 38.44 32.02 38.44 32.02 39.18 49.44 39.18 49.44 38.44 44.57 38.44 44.57 2.23 49.44 2.23"/><path class="cls-1" d="M20.72,2.45h0v-1H0v9.7H.69C2.75,4,5.62,2.23,10.86,2.23H13V38.44H8.17v.74H25.59v-.74H20.72Z"/><path class="cls-1" d="M161.19,24.25h12.72l6.14,14.19h-4.93v.74h17.79v-.74h-4.55L171.68,0,167.6,9.53l6,14H161.46Z"/><path class="cls-1" d="M79.74,35.94a13.81,13.81,0,0,1-9.53,3.27c-10.18,0-11.38-10.1-11.38-17.78,0-1.81.08-2.93.08-4.05L59,16.17c.51-7.5,2.5-14.82,10.26-14.82a7.33,7.33,0,0,1,5.45,2l.17.19a7,7,0,0,1,1.39,2.07A8.1,8.1,0,0,1,77,7.76a13.94,13.94,0,0,1,.33,3.16,7.8,7.8,0,0,1-.48,2.68,8.78,8.78,0,0,1-2.2,3.57,10,10,0,0,1-5.26,3.18,46.28,46.28,0,0,1-8.22.56l0,.74H65a35.54,35.54,0,0,0,3.84-.24,19.69,19.69,0,0,0,6.64-2.2,12.14,12.14,0,0,0,3.9-2.93c1.8-2,3.7-3.09,3.7-5.11a6.81,6.81,0,0,0-.69-3.58l-.16-.23A14.85,14.85,0,0,0,69.61.64C58.74.64,50.2,10.31,50.2,20.49,50.2,32.21,58.56,40,70.12,40c4.91,0,8.15-1.47,10.31-3.36Z"/><path class="cls-1" d="M141.49,39.18v-.75c-2.49,0-2.44-1.15-3.13-10-.58-7.63-4.71-8.37-11.6-9.59v-.26c4.77-.37,10.43-2.54,10.43-8.21,0-7-7.42-8.9-13-8.9H112.49v.74h9.83c4.83,0,6.71,2.55,6.71,8.74,0,3.87-.53,7.63-6.88,7.63H120v.74h3.5c6.56,0,6.83,5.56,7.09,11.33.16,3.7,2.13,8.52,8.22,8.52Z"/><path class="cls-1" d="M96.46.67a19.67,19.67,0,1,0,19.67,19.67A19.67,19.67,0,0,0,96.46.67Zm4,23.66C92.71,32,84.69,36.38,82.5,34.18S84.8,24,92.5,16.35s15.74-12.06,17.92-9.86S108.13,16.68,100.42,24.33Z"/></g></g></svg>