<svg xmlns="http://www.w3.org/2000/svg" viewBox="0 0 93.01 71.55"><defs><style>.cls-1,.cls-2{fill:#00579d;}.cls-1{fill-rule:evenodd;}</style></defs><title>serivce01</title><g id="レイヤー_2" data-name="レイヤー 2"><g id="レイヤー_1-2" data-name="レイヤー 1"><path class="cls-1" d="M44.64,42.27a11.64,11.64,0,0,1,.13-1.8,15.43,15.43,0,0,1,.34-1.62,11.67,11.67,0,0,1,3.42-5.71,9,9,0,0,1,6-2.25A10.05,10.05,0,0,1,56,31v-8c0,.39-1,.79-1.34,1.17-.16.16-.66.32-.66.48v0l-.39.41a5.42,5.42,0,0,1-.82.71,3.42,3.42,0,0,1-1.93.67,1.73,1.73,0,0,1-.18.36s-.06.11-.1.17a2.82,2.82,0,0,1-.77,1C48.46,29,47.05,30,45.69,31.05l0,0a2.53,2.53,0,0,1-1.5.52,7.49,7.49,0,0,1-1.77,4.6,9.58,9.58,0,0,1-7.69,3.88A11.39,11.39,0,0,1,29.9,39c-.23-.1-.42-.22-.6-.31s-.76-.08-.83-.12C28,38.24,27,37.69,27,37.1V37c0-.57.91-1.09,1.39-1.38a8.53,8.53,0,0,0,4-4.9,10.09,10.09,0,0,1,1.22-2.65,5.38,5.38,0,0,1,4.52-2.62,6.62,6.62,0,0,1,.88.06,2.87,2.87,0,0,1,.44-.77l1.4-1.86,1.57-2.07a2.79,2.79,0,0,1,1.64-1.16,3.57,3.57,0,0,1,.82-2.17,10.43,10.43,0,0,1,1-1.07l-5.66-5.68a2.16,2.16,0,0,0-3.08,0L21,26.91,12.6,18.5a2.3,2.3,0,0,0-2.85,0L0,27.79V5.6H54v3c1-.48,2-1,2-1.44V5.53A2.19,2.19,0,0,0,54.26,3.6H.67C-.14,3.6,0,4.72,0,5.53V42.59c0,.81-.15,2,.66,2H44.81A20.21,20.21,0,0,1,44.64,42.27Z"/><path class="cls-1" d="M69,.09A10.65,10.65,0,0,0,67,.84a38.84,38.84,0,0,0-6.42,4.44c-4.63,3.77-9,7.88-13.22,12.07A12.06,12.06,0,0,0,46.2,18.5,1.71,1.71,0,0,0,46.32,21c.77.8,1.56,1.58,2.34,2.36a14.55,14.55,0,0,0,1.06,1,1.65,1.65,0,0,0,2.18.07,3.68,3.68,0,0,0,.6-.51c1.38-1.4,2.76-2.78,4.11-4.2A144.79,144.79,0,0,0,66.77,8.41C68.37,6.32,69,4.23,71,1.63V.84C70,.08,69.9-.15,69,.09Z"/><path class="cls-1" d="M38.91,27.15A3.56,3.56,0,0,0,35.15,29a9.16,9.16,0,0,0-1.28,2.2A8.11,8.11,0,0,1,29,37v.08c0,.13.9.27,1.15.38,3.4,1.6,7.88,1.45,10.75-2.28a5.49,5.49,0,0,0,1.38-4.8A4,4,0,0,0,38.91,27.15Z"/><path class="cls-1" d="M44.71,29.77c1.38-1,2.77-2.07,4.14-3.14a3.26,3.26,0,0,0,.51-.75,6.19,6.19,0,0,0-.45-.66l-3.53-3.54c-.62-.62-1.11-.58-1.63.12l-3,3.93A.85.85,0,0,0,40.87,27c.89.89,1.77,1.78,2.66,2.66A.82.82,0,0,0,44.71,29.77Z"/><path class="cls-2" d="M71,57.74a2.18,2.18,0,0,1,1.24,2.11v9.41a2.46,2.46,0,0,1-.55,1.61,1.79,1.79,0,0,1-1.43.68H39.91a1.73,1.73,0,0,1-1.37-.68A2.46,2.46,0,0,1,38,69.26V59.85a2.18,2.18,0,0,1,1.23-2.11l8.55-4,3.34-1.55a9.12,9.12,0,0,1-3.59-4.08,11.13,11.13,0,0,1-1.18-5,9.6,9.6,0,0,1,.13-1.54,12.45,12.45,0,0,1,.31-1.43A10.7,10.7,0,0,1,49.9,35,7.77,7.77,0,0,1,60.46,35a10.46,10.46,0,0,1,3.09,5.33,14,14,0,0,1,.31,2.78,11.89,11.89,0,0,1-1,4.77,9,9,0,0,1-3.59,4.21l3.53,1.67,8.23,4Z"/><path class="cls-2" d="M91.93,57.74l-8.15-4-3.49-1.67A9,9,0,0,0,83.9,47.9a11.9,11.9,0,0,0,1-4.77,14.76,14.76,0,0,0-.3-2.78A10.6,10.6,0,0,0,81.51,35,7.77,7.77,0,0,0,71,35a10.62,10.62,0,0,0-3.12,5.2,12.45,12.45,0,0,0-.31,1.43,8.57,8.57,0,0,0-.13,1.54,11,11,0,0,0,1.18,5,9.06,9.06,0,0,0,3.59,4.08l-3.1,1.44,2.55,1.09A5.74,5.74,0,0,1,75,59.85v9.41c0,.81-.73.34-1,1.34H91.35c.58,0,.89.25,1.26-.21a1.23,1.23,0,0,0,.4-1.13V59.85A2.06,2.06,0,0,0,91.93,57.74Z"/></g></g></svg>