<svg xmlns="http://www.w3.org/2000/svg" viewBox="-5 0 100 80"><defs><style>.cls-1,.cls-2{fill:#00579d;}.cls-1{fill-rule:evenodd;}</style></defs><title>service04</title><g id="レイヤー_2" data-name="レイヤー 2"><g id="レイヤー_1-2" data-name="レイヤー 1"><path class="cls-1" d="M30.32,74.84a2.64,2.64,0,0,1-1-1.45c-.28-.84-.63-1.66-1-2.48a3.36,3.36,0,0,0-1.73-1.75A4.45,4.45,0,0,0,22.32,69c-.64.34-1.32.63-2,.94a1.69,1.69,0,0,1-2.06-.36l-1.45-1.44a1.7,1.7,0,0,1-.33-2c.41-.91.82-1.82,1.21-2.74a4,4,0,0,0-.28-3.31,4.16,4.16,0,0,0-2.68-2.37c-.69-.23-1.38-.48-2.07-.74a1.67,1.67,0,0,1-1.16-1.63c0-.68,0-1.36,0-2a1.75,1.75,0,0,1,1.23-1.7c1-.38,1.95-.8,2.94-1.16,1.62-.58,2.78-3.84,2-5.26-.42-.8-.76-1.65-1.14-2.48a1.79,1.79,0,0,1,.4-2.37l1.26-1.25a1.71,1.71,0,0,1,2.1-.38,31.82,31.82,0,0,0,3.16,1.3,4.49,4.49,0,0,0,4.79-2.2,27.9,27.9,0,0,0,1.08-2.8,1.82,1.82,0,0,1,1.76-1.32c.63,0,1.26,0,1.88,0a1.84,1.84,0,0,1,1.84,1.36c.31.89.68,1.77,1,2.65a3.75,3.75,0,0,0,2.29,2,4.11,4.11,0,0,0,3.62,0c.7-.36,1.42-.67,2.13-1a1.64,1.64,0,0,1,2,.34c.46.45.92.91,1.37,1.37a1.71,1.71,0,0,1,.37,2.23c-.37.8-.72,1.6-1.08,2.4a4.23,4.23,0,0,0,.21,3.51A4.47,4.47,0,0,0,49.66,51c.58.22,1.18.42,1.77.63a1.78,1.78,0,0,1,1.32,1.81c0,.64,0,1.29,0,1.93a1.74,1.74,0,0,1-1.25,1.69c-.59.21-1.18.43-1.77.62a4.75,4.75,0,0,0-3.4,4,3.26,3.26,0,0,0,.28,2c.35.83.74,1.63,1.12,2.44a1.68,1.68,0,0,1-.36,2.1L46,69.63a1.7,1.7,0,0,1-2,.35c-.91-.41-1.82-.83-2.74-1.21a3.52,3.52,0,0,0-2.61,0,4.39,4.39,0,0,0-3,2.88c-.15.49-.37,1-.51,1.46A3.11,3.11,0,0,1,34,74.84Zm1.8-11.78a8.71,8.71,0,1,0-8.69-8.7A8.69,8.69,0,0,0,32.12,63.06Z"/><path class="cls-1" d="M18.84,36.88c-.74-.11-1.27-.23-1.8-.26a2.35,2.35,0,0,0-2.45,1.93,3,3,0,0,0-.06.42c-.11,1.71-.13,1.73-1.81,2.08a.87.87,0,0,1-1-.37c-.25-.35-.51-.69-.74-1a2.39,2.39,0,0,0-3.46-.4c-.23.22-.5.4-.73.62A1,1,0,0,1,5.4,40l-.6-.35a1.05,1.05,0,0,1-.56-1.26c.09-.42.13-.85.21-1.27a2.38,2.38,0,0,0-2.19-2.55H2c-1.61-.11-1.7-.19-2-1.77a.94.94,0,0,1,.42-1.06c.38-.27.75-.56,1.13-.81a2.39,2.39,0,0,0,.32-3.27,11.1,11.1,0,0,1-.76-.91,1.69,1.69,0,0,1-.23-.36,1.9,1.9,0,0,1,1.73-2.11c.46.07.92.18,1.38.21a2.34,2.34,0,0,0,2.46-2.16c0-.38.07-.75.1-1.13a1.17,1.17,0,0,1,0-.26c.32-.8,1.11-.68,1.73-.87a.85.85,0,0,1,1,.43c.25.38.53.73.77,1.1a2.41,2.41,0,0,0,3.23.39c.3-.28.62-.53,1-.79a1.28,1.28,0,0,1,.4-.25,1.88,1.88,0,0,1,2.09,1.7,13.68,13.68,0,0,0-.21,1.43,2.34,2.34,0,0,0,2.13,2.44l1.18.1a.9.9,0,0,1,.85.69c0,.06,0,.14.05.21.41,1.43.4,1.43-.81,2.27a2.61,2.61,0,0,0-1.26,1.52,2.36,2.36,0,0,0,.5,2.25l.21.25c.93,1.08,1.09,1.07.09,2.59C19.35,36.65,19,36.78,18.84,36.88Zm-8.38-1.79A4.54,4.54,0,1,0,6,30.54,4.56,4.56,0,0,0,10.46,35.09Z"/><path class="cls-2" d="M84.07,2.6a6.29,6.29,0,0,1,.77,0,7,7,0,0,1,.06,1v40.1c0,2.35-.54,3.57-.81,3.8h-32L52,47.26a4.45,4.45,0,0,1-.27-2.85l.45-1c.26-.6.53-1.2.8-1.8A4.6,4.6,0,0,0,52,36l-1.08-1-.64-.62A4.75,4.75,0,0,0,47,33a5,5,0,0,0-2.11.48c-.3.14-.66.29-1,.44-.6.25-1.22.5-1.8.8a2.42,2.42,0,0,1-1.13.24,3.67,3.67,0,0,1-1-.13V3.69C40.09,3.32,41.71,2.6,44,2.6h40.1m0-2.6H44c-2.75,0-6.66.94-6.66,3.69V36.9a4.28,4.28,0,0,1,1.15.14,6.53,6.53,0,0,0,2.42.48A5,5,0,0,0,43.2,37c.83-.43,1.91-.8,2.76-1.2a2.37,2.37,0,0,1,1-.24,2.1,2.1,0,0,1,1.5.64c.55.54,1.14,1.09,1.68,1.63a2.07,2.07,0,0,1,.47,2.67c-.44.95-.85,1.91-1.27,2.86a6.83,6.83,0,0,0,.25,4.91c.2.48.47,1.06.77,1.92h33.7c2.75,0,3.42-3.64,3.42-6.39V3.69C87.49.94,86.82,0,84.07,0Z"/><path class="cls-2" d="M72,20.18h3.54v.15h-1v7.36h1v.15H71.61v-.15H73V20.33H72Z"/><polygon class="cls-2" points="52.91 20.33 52.91 20.18 49.37 20.18 49.37 20.33 50.36 20.33 50.36 23.86 47.99 23.86 47.99 24.01 50.36 24.01 50.36 27.69 49.37 27.69 49.37 27.84 52.91 27.84 52.91 27.69 51.92 27.69 51.92 20.33 52.91 20.33"/><path class="cls-2" d="M47.07,20.37h0v-.19H42.86v2H43c.42-1.47,1-1.82,2.07-1.82h.44v7.36h-1v.15h3.54v-.15h-1Z"/><path class="cls-2" d="M75.62,24.8H78.2l1.25,2.89h-1v.15h3.62v-.15h-.93l-3.39-7.82-.83,1.94,1.23,2.84H75.67Z"/><path class="cls-2" d="M59.07,27.18a2.83,2.83,0,0,1-1.94.66c-2.07,0-2.31-2.05-2.31-3.61,0-.37,0-.6,0-.82l0-.25c.11-1.52.51-3,2.09-3a1.48,1.48,0,0,1,1.1.4l0,0a1.34,1.34,0,0,1,.28.42,1.75,1.75,0,0,1,.15.44,3.14,3.14,0,0,1,.07.64,1.74,1.74,0,0,1-.1.55,1.82,1.82,0,0,1-.45.72A2,2,0,0,1,57,24a9.46,9.46,0,0,1-1.67.11v.15h.78a6.56,6.56,0,0,0,.78-.05,4,4,0,0,0,1.35-.44,2.39,2.39,0,0,0,.79-.6c.36-.41.75-.62.75-1a1.32,1.32,0,0,0-.14-.72l0-.05A3,3,0,0,0,57,20a4.07,4.07,0,0,0-3.95,4,3.82,3.82,0,0,0,4,4,3,3,0,0,0,2.1-.69Z"/><path class="cls-2" d="M71.61,27.84v-.16c-.5,0-.49-.23-.63-2-.12-1.55-1-1.7-2.36-1.94v-.06c1-.07,2.12-.51,2.12-1.67,0-1.43-1.51-1.8-2.64-1.8H65.72v.15h2c1,0,1.36.52,1.36,1.78,0,.79-.11,1.55-1.4,1.55h-.44v.15H68c1.34,0,1.39,1.13,1.44,2.31a1.65,1.65,0,0,0,1.67,1.73Z"/><path class="cls-2" d="M62.47,20a4,4,0,1,0,4,4A4,4,0,0,0,62.47,20Zm.8,4.81c-1.57,1.55-3.2,2.45-3.64,2s.46-2.07,2-3.62,3.2-2.45,3.64-2S64.84,23.26,63.27,24.82Z"/></g></g></svg>