<svg xmlns="http://www.w3.org/2000/svg" viewBox="-15 0 100 80"><defs><style>.cls-1{fill:#00579d;}</style></defs><title>service03</title><g id="レイヤー_2" data-name="レイヤー 2"><g id="レイヤー_1-2" data-name="レイヤー 1"><path class="cls-1" d="M55.89,63.34A2.75,2.75,0,0,1,57.46,66V78a3.1,3.1,0,0,1-.71,2,2.21,2.21,0,0,1-1.81.86H16.24a2.16,2.16,0,0,1-1.74-.86,3.15,3.15,0,0,1-.71-2V66a2.76,2.76,0,0,1,1.58-2.68l10.88-5.05,4.26-2a11.64,11.64,0,0,1-4.58-5.2,14.09,14.09,0,0,1-1.49-6.39,12.59,12.59,0,0,1,.15-2c.11-.63.24-1.23.4-1.81a13.45,13.45,0,0,1,4-6.62,9.87,9.87,0,0,1,13.44.08,13.37,13.37,0,0,1,3.94,6.78,18.36,18.36,0,0,1,.39,3.54,15.11,15.11,0,0,1-1.26,6.07,11.43,11.43,0,0,1-4.57,5.36l4.49,2.13,10.49,5.05ZM13.79,60a6,6,0,0,0-2.72,2.4,6.82,6.82,0,0,0-1,3.59V76.19H2a1.78,1.78,0,0,1-1.42-.67A2.59,2.59,0,0,1,0,73.82V64.2A2.07,2.07,0,0,1,1.26,62l12.22-5.68A9.87,9.87,0,0,1,9.93,52.5a11.57,11.57,0,0,1-1.34-5.56,11.76,11.76,0,0,1,.71-4.06,10.81,10.81,0,0,1,1.93-3.35,9.42,9.42,0,0,1,2.84-2.24,7.5,7.5,0,0,1,3.51-.83,7,7,0,0,1,2.36.39,11,11,0,0,1,2.13,1,18.13,18.13,0,0,0-1.34,6.85,17.8,17.8,0,0,0,.79,5.32,16.45,16.45,0,0,0,2.21,4.62,7.7,7.7,0,0,1-1.82,1.49Zm56.44,2a2.25,2.25,0,0,1,1.26,2.2v9.62a2.55,2.55,0,0,1-.55,1.69,1.76,1.76,0,0,1-1.42.68H61.17V66a6.73,6.73,0,0,0-1-3.59A6.05,6.05,0,0,0,57.54,60l-7.8-3.71a8.16,8.16,0,0,1-2.13-1.81A17.68,17.68,0,0,0,49.7,50a18.11,18.11,0,0,0,.75-5.25,18.47,18.47,0,0,0-.32-3.46A17.64,17.64,0,0,0,49.19,38a10,10,0,0,1,2.2-1.14,7.06,7.06,0,0,1,2.45-.43,7.68,7.68,0,0,1,3.54.83,9.11,9.11,0,0,1,2.88,2.24,10.62,10.62,0,0,1,1.93,3.35,11.53,11.53,0,0,1,.71,4.06,11.29,11.29,0,0,1-1.34,5.48,10.22,10.22,0,0,1-3.39,3.82L70.23,62Z"/><path class="cls-1" d="M25.17,7.43l2.18,1.25a.83.83,0,0,0,.42.11.86.86,0,0,0,.73-.41.84.84,0,0,0-.31-1.14L26,6a.84.84,0,0,0-1.14.31A.85.85,0,0,0,25.17,7.43Z"/><path class="cls-1" d="M30.41,5a.85.85,0,0,0,.73.42.91.91,0,0,0,.42-.11.85.85,0,0,0,.31-1.14L30.61,2a.84.84,0,0,0-1.14-.31.85.85,0,0,0-.31,1.15Z"/><path class="cls-1" d="M35.75,4.19a.84.84,0,0,0,.83-.84V.84A.84.84,0,0,0,35.75,0a.85.85,0,0,0-.84.84V3.35A.85.85,0,0,0,35.75,4.19Z"/><path class="cls-1" d="M43.72,8.79a.8.8,0,0,0,.42-.11l2.18-1.25A.84.84,0,0,0,45.48,6L43.31,7.23A.84.84,0,0,0,43,8.37.82.82,0,0,0,43.72,8.79Z"/><path class="cls-1" d="M39.93,5.31a.84.84,0,0,0,.42.12A.87.87,0,0,0,41.08,5l1.25-2.18A.84.84,0,1,0,40.88,2L39.63,4.17A.83.83,0,0,0,39.93,5.31Z"/><path class="cls-1" d="M46.32,17.7l-2.18-1.26a.84.84,0,0,0-1.14.31.83.83,0,0,0,.31,1.14l2.17,1.26a.91.91,0,0,0,.42.11.82.82,0,0,0,.72-.42A.83.83,0,0,0,46.32,17.7Z"/><path class="cls-1" d="M35.75,5A7.52,7.52,0,0,0,32.4,19.28v4.16a1.68,1.68,0,0,0,1.67,1.68,1.68,1.68,0,0,0,3.35,0,1.68,1.68,0,0,0,1.68-1.68V19.28A7.52,7.52,0,0,0,35.75,5Zm1.67,18.42H34.07V21.77h3.35Zm.93-5.66-.93.47V20.1H34.07V18.25l-.92-.47a5.79,5.79,0,0,1-3.26-5.22,5.86,5.86,0,0,1,11.72,0A5.79,5.79,0,0,1,38.35,17.78Z"/><path class="cls-1" d="M47.47,11.72H45a.84.84,0,1,0,0,1.68h2.51a.84.84,0,0,0,0-1.68Z"/><path class="cls-1" d="M27.35,16.44,25.17,17.7a.84.84,0,0,0,.42,1.56.88.88,0,0,0,.42-.11l2.18-1.26a.84.84,0,1,0-.84-1.45Z"/><path class="cls-1" d="M27.37,12.56a.84.84,0,0,0-.83-.84H24a.84.84,0,0,0,0,1.68h2.51A.84.84,0,0,0,27.37,12.56Z"/></g></g></svg>