<svg xmlns="http://www.w3.org/2000/svg" viewBox="-8 -18 90 90"><defs><style>.cls-1{fill:#333;}</style></defs><title>solution07</title><g id="レイヤー_2" data-name="レイヤー 2"><g id="レイヤー_1-2" data-name="レイヤー 1"><path class="cls-1" d="M64.61,48.05H4.06V29.52l1.68.85a6.72,6.72,0,0,0-.34,2,6.93,6.93,0,0,0,13.86,0,6.86,6.86,0,0,0-.9-3.36h0l5.37-4.37h0a6.84,6.84,0,0,0,9.37.05l4.62,4A6.78,6.78,0,0,0,36.85,32a6.93,6.93,0,1,0,12-4.74h0l7.11-10.57a6.74,6.74,0,0,0,2.8.61,7,7,0,1,0-4.8-2l-7,10.49a6.74,6.74,0,0,0-7.66,1l-4.66-4a6.82,6.82,0,0,0,.82-3.2,6.93,6.93,0,0,0-13.86,0,6.86,6.86,0,0,0,.78,3.12l-5.46,4.44h0a6.83,6.83,0,0,0-10,1.07l-2.76-1.4V2A2,2,0,1,0,0,2v48a2,2,0,0,0,2,2H64.61a2,2,0,1,0,0-4.06ZM58.72,5.81a4.53,4.53,0,1,1-4.53,4.52A4.52,4.52,0,0,1,58.72,5.81ZM38.39,27.66h0Zm9.55-1.21,0,0Zm-4.16,1A4.53,4.53,0,1,1,39.25,32,4.52,4.52,0,0,1,43.78,27.44ZM33.9,23.83a0,0,0,0,1,0,0A0,0,0,0,0,33.9,23.83Zm-5.45-8.76a4.53,4.53,0,1,1-4.53,4.53A4.53,4.53,0,0,1,28.45,15.07ZM23,23.77s0,0,0,0S22.94,23.76,23,23.77ZM17.69,28l0,0Zm-5.36-.19A4.53,4.53,0,1,1,7.8,32.38,4.53,4.53,0,0,1,12.33,27.85Zm-6.15,1.4v0Z"/></g></g></svg>