<svg xmlns="http://www.w3.org/2000/svg" viewBox="-15 -15 90 90"><defs><style>.cls-1{fill:#333;}</style></defs><title>solution06</title><g id="レイヤー_2" data-name="レイヤー 2"><g id="レイヤー_1-2" data-name="レイヤー 1"><path id="megaphone" class="cls-1" d="M42.3,0c-3.47,0-6.2,2.39-8.16,6.07l0,0c-2.84,5.57-7.07,9.18-11.72,9.18H6.77C3,15.23,0,19,0,23.69s3,8.46,6.77,8.46a3.39,3.39,0,0,1,3.37,3.39V50.76a3.39,3.39,0,0,0,3.39,3.39H20.3a3.38,3.38,0,0,0,3.38-3.39V49.07c0-1.69-1.69-2.45-1.69-3.38V33.84s0-.06,0-.1a1.68,1.68,0,0,1,.19-.67.78.78,0,0,1,.1-.15,1.59,1.59,0,0,1,.51-.49l0,0h0a1.58,1.58,0,0,1,.45-.14c4.27.45,8.13,3.9,10.79,9.09l0,0c2,3.67,4.68,6.05,8.15,6.05,7.78,0,11.85-11.92,11.85-23.69S50.08,0,42.3,0ZM33.84,23.69a49,49,0,0,1,.28-5.08h4.8c1.87,0,3.38,2.28,3.38,5.08s-1.51,5.08-3.38,5.08h-4.8A48.79,48.79,0,0,1,33.84,23.69Zm-30.46,0c0-2.8,1.52-5.08,3.39-5.08H18.64a7.85,7.85,0,0,0-1.72,5.08,7.81,7.81,0,0,0,1.72,5.08H6.77C4.9,28.77,3.38,26.5,3.38,23.69ZM20.3,50.76H13.53V35.54a6.71,6.71,0,0,0-.91-3.39H13.8v0h5.09a5.13,5.13,0,0,0-.28,1.67V45.69a5.07,5.07,0,0,0,1.45,3.36l.24.28Zm2.08-22H22v0c-1.87,0-3.39-2.27-3.39-5.08s1.52-5.08,3.39-5.08h.38a13.83,13.83,0,0,0,8.81-3.41,49.85,49.85,0,0,0,0,17A13.83,13.83,0,0,0,22.38,28.79ZM42.3,44c-3.41,0-6.34-4.86-7.68-11.85h4.3c3.79,0,6.77-3.71,6.77-8.46s-3-8.46-6.77-8.46h-4.3C36,8.25,38.89,3.38,42.3,3.38c4.68,0,8.46,9.1,8.46,20.31S47,44,42.3,44Z"/></g></g></svg>