<svg xmlns="http://www.w3.org/2000/svg" viewBox="0 0 412.22 210.34"><defs><style>.cls-1{fill:#999;}</style></defs><title>solution2_main</title><g id="レイヤー_2" data-name="レイヤー 2"><g id="レイヤー_1-2" data-name="レイヤー 1"><path class="cls-1" d="M133.64,158.21l8.12-.88s13.75-10.91,14.49-9.69,11.45,18.26,12.92,20.71c.2.33.53,1,.94,1.82L152.52,91l-.12-.56a39.3,39.3,0,0,0-8,5.45c-6.75,6.24-11.63,20.89-17.23,26.2s-9.55,8.9-9.55,8.9l.29,2.06s-6.41,6.51-9.39,7.63-14.2,2.69-22.22,8.18-30.65,16-34.17,16.83-5.29,1.18-6.71,1-4.3-6.9-10.17-8.37-7.15-3-8-4.7-3.53-3.38-4.61.1,1.72,5.63,3.77,6.56c1.18,1.12,6,6.07,2.65,7.73a119.74,119.74,0,0,1-18,6.31A44.42,44.42,0,0,0,2,177.3c-2.11.93-1.42,4,2.64,3.58s13-2,13-2-.58,1.52-3.77,1.76-8.95,3.38-11.59,4-3.63,4.5,1.07,4.84c-.68,1.08,1.67,3.33,5,3.53a12.39,12.39,0,0,1,6.06,2.35s21-3.28,24.77-5,11.6-8.13,11.6-8.13l5.73-1.27S102.11,170.3,107.6,170,118,164.92,118,164.92Z"/><path class="cls-1" d="M278.28,157l-8.14-.79s-13.86-10.77-14.59-9.53S244.3,165,242.86,167.47c-.2.33-.53,1-.92,1.83L258.68,90l.11-.56a39.66,39.66,0,0,1,8.1,5.36c6.82,6.18,11.85,20.77,17.51,26s9.64,8.8,9.64,8.8l-.27,2.06s6.48,6.44,9.48,7.53,14.22,2.54,22.31,7.94,30.81,15.72,34.34,16.47,5.3,1.12,6.72,1,4.23-6.95,10.08-8.48,7.12-3.12,7.93-4.79,3.49-3.41,4.61.05-1.66,5.65-3.7,6.6c-1.17,1.14-5.91,6.13-2.56,7.76a120.65,120.65,0,0,0,18.07,6.12,44.11,44.11,0,0,1,9.09,2.84c2.12.91,1.47,4-2.6,3.6s-13-1.82-13-1.82.6,1.51,3.78,1.73,9,3.28,11.64,3.84,3.67,4.46-1,4.86c.7,1.07-1.63,3.34-4.91,3.57a12.44,12.44,0,0,0-6,2.42s-21-3.06-24.82-4.78-11.69-8-11.69-8l-5.73-1.21s-45.83-10.14-51.32-10.37-10.47-5-10.47-5Z"/><path class="cls-1" d="M269.43,109.24A116.62,116.62,0,0,0,247,89.55c-15.4-10.58-24-15.62-24-15.62l.35-5.7,4.94-13.38s2.39.9,5.05-7.69-2.54-8-2.54-8,1.15-12.83,1.12-14.25C235.59,21.5,229.55,5,211,1.15s-20.32,3.28-20.32,3.28a17.49,17.49,0,0,0-10.2,11.12c-2.67,8.59-.21,12.33-.65,14.24s.17,8.06,1.63,9.92c-2.82,1-5.55,6.76,4.15,17,2.5,6.11,2.17,12.75,3.64,15.09a8.67,8.67,0,0,1,.11,5.22s-7.5,3.95-15,6.95S156,94.31,151.82,97.24c-2.76,1.93-8,4.63-12.65,12Z"/><path class="cls-1" d="M257,146.86c8.52,10.37,23.72,15.81,42,23.22,17.08,6.93,57.32,22.74,57.32,22.74l8.9-30.64s-32.5-15.94-54.36-23.72-34-30.66-38.47-38.08-10.93-10.53-17-12.23C248.53,86.26,245,86.3,232,78.88s-39.66-7-41.14-3.7-18.16,7-25.94,10-18.16,4.08-29.65,21.87-25.58,27.8-32.25,31.14-56.44,27.16-56.44,27.16L54,197.85s55.67-22.08,70.5-29.74,32.12-21.5,32.61-24.22l.75,61.47,100.53,5"/><line class="cls-1" x1="157.9" y1="201.52" x2="258.89" y2="208.48"/></g></g></svg>