<svg xmlns="http://www.w3.org/2000/svg" viewBox="-20 -15 90 90" ><defs><style>.cls-1{fill:#333;}</style></defs><title>solution01</title><g id="レイヤー_2" data-name="レイヤー 2"><g id="レイヤー_1-2" data-name="レイヤー 1"><path class="cls-1" d="M12.32,13.87a2.43,2.43,0,1,0,2.43,2.43A2.42,2.42,0,0,0,12.32,13.87Z"/><path class="cls-1" d="M12.32,23a2.43,2.43,0,1,0,2.43,2.43A2.42,2.42,0,0,0,12.32,23Z"/><path class="cls-1" d="M12.32,32.11a2.43,2.43,0,1,0,2.43,2.43A2.42,2.42,0,0,0,12.32,32.11Z"/><path class="cls-1" d="M12.32,41.23a2.43,2.43,0,1,0,2.43,2.43A2.42,2.42,0,0,0,12.32,41.23Z"/><path class="cls-1" d="M39.6,14.73H20.3a1.57,1.57,0,1,0,0,3.13H39.6a1.57,1.57,0,0,0,0-3.13Z"/><path class="cls-1" d="M39.6,23.85H20.3a1.57,1.57,0,1,0,0,3.13H39.6a1.57,1.57,0,0,0,0-3.13Z"/><path class="cls-1" d="M39.6,33H20.3a1.57,1.57,0,1,0,0,3.13H39.6a1.57,1.57,0,0,0,0-3.13Z"/><path class="cls-1" d="M39.6,42.1H20.3a1.57,1.57,0,1,0,0,3.13H39.6a1.57,1.57,0,0,0,0-3.13Z"/><path class="cls-1" d="M48,0H3A3,3,0,0,0,0,3v53.9a3,3,0,0,0,3,3H48a3,3,0,0,0,3-3V3A3,3,0,0,0,48,0Zm.52,56.93a.52.52,0,0,1-.52.52H3a.52.52,0,0,1-.52-.52V3A.52.52,0,0,1,3,2.51H48a.52.52,0,0,1,.52.52Z"/></g></g></svg>