<svg xmlns="http://www.w3.org/2000/svg" viewBox="0 0 185.25 115.97"><defs><style>.cls-1{fill:#fff;fill-opacity:0.7;}</style></defs><title>solution_main</title><g id="レイヤー_2" data-name="レイヤー 2"><g id="レイヤー_1-2" data-name="レイヤー 1"><path class="cls-1" d="M94.48,3.9c4.14,0,8.14,2,12.38,4.21l.85.44c1,.49,1.28,1.54,1.44,4.87.4,8.49.81,16.79,1.37,25a18.59,18.59,0,0,0,17.59,17c5.33.24,9.69.67,13.14,3.74a10.65,10.65,0,0,0,5.93,2.26c4,.56,6.48,2.19,8,5.28.38.79.79,1.5,1.19,2.18a18.67,18.67,0,0,1,1,1.93c5.69,13.27,12.45,24.07,20.64,33a12.73,12.73,0,0,1,3.31,8.2H157.64a23.91,23.91,0,0,0-10.58-8l-5.25-2v9.93H60.1c-.26-3.5-.65-6.76-1.18-9.86-.36-2.1-1.45-8.51-9-8.79-12.87-.51-23.88-6.35-35.53-12.54l-2.2-1.16a47.42,47.42,0,0,1-6.36-4.26,4.26,4.26,0,0,1-2-3.23A4.32,4.32,0,0,1,6,69l.7-.51c9.05-6.59,18.41-13.4,26.53-21.84,1.17-1.22,3.46-2,5.88-2.81a41.09,41.09,0,0,0,5.12-2,52.08,52.08,0,0,1,6.54-2.55c5.09-1.74,10.85-3.7,15.09-8.82a14,14,0,0,0,3-6.18c1.06-5.73,2.64-11.68,7-16.41a9.63,9.63,0,0,1,7.68-3.07l.88,0,.87.06c.6,0,1.29.08,2,.08a10.51,10.51,0,0,0,3.31-.46,12.61,12.61,0,0,1,3.87-.61h0M44.7,63l2.73-.15h.63c.6,0,1.26,0,2,.07s1.55.08,2.35.08a10.93,10.93,0,0,0,6-1.45,11.53,11.53,0,0,1,6.71-1.79c1.38,0,2.82.13,4.44.28.76.07,1.54.1,2.31.1a23.22,23.22,0,0,0,7.81-1.29c3.77-1.36,4.74-3.94,5-5.36.45-2.59-.78-5.28-3.36-7.39A13.14,13.14,0,0,0,72.75,43a26.59,26.59,0,0,0-8.57,1.89l-.6.21a102.53,102.53,0,0,0-10.74,4.13,45.78,45.78,0,0,0-6,3.58c-.79.54-1.54,1-2.29,1.52L41.78,56l1.29,3.05.28.66c.09.23.19.46.29.7L44.7,63M94.48,0a16.44,16.44,0,0,0-5,.8,7.12,7.12,0,0,1-2.13.27c-.89,0-1.81-.09-2.69-.13q-.52,0-1,0A13.54,13.54,0,0,0,73,5.23c-4.83,5.21-6.75,11.6-8,18.35A10,10,0,0,1,62.86,28c-5.27,6.36-13.55,7-20.38,10.37-4,2-9.2,2.63-12.06,5.61C22.34,52.36,13,59.07,3.71,65.86c-4.88,3.55-4.94,9-.21,12.69a48.12,48.12,0,0,0,6.92,4.61c12.45,6.59,24.78,13.58,39.4,14.15,3.56.13,4.68,2.16,5.25,5.55A107.94,107.94,0,0,1,56.44,116h89.27v-8.23a20.75,20.75,0,0,1,10,8.23h29.45c0-.19,0-.38,0-.57.41-5.39-.66-10.21-4.28-14.16C172.25,91.83,166,81,160.94,69.34c-.63-1.48-1.59-2.81-2.29-4.27-2.21-4.61-6-6.77-10.93-7.45a7.55,7.55,0,0,1-3.88-1.3c-4.5-4-10-4.48-15.56-4.73A14.61,14.61,0,0,1,114.41,38.2c-.57-8.32-1-16.64-1.36-25-.16-3.22-.41-6.55-3.57-8.16C104.68,2.63,99.87,0,94.48,0ZM47.23,58.93l-.57-1.36a76,76,0,0,1,7.84-4.86,106.93,106.93,0,0,1,11-4.18,23.12,23.12,0,0,1,7.3-1.68,9.18,9.18,0,0,1,6,2.22c2.7,2.21,2.84,4.88-.47,6.07a19.3,19.3,0,0,1-6.49,1.07q-1,0-2-.09c-1.64-.16-3.23-.3-4.8-.3a15.46,15.46,0,0,0-8.82,2.41,7.18,7.18,0,0,1-3.89.83c-1.4,0-2.9-.15-4.31-.15l-.83,0Z"/></g></g></svg>