<svg xmlns="http://www.w3.org/2000/svg" viewBox="-10 -15 90 90"><defs><style>.cls-1{fill:#333;}</style></defs><title>solution04</title><g id="レイヤー_2" data-name="レイヤー 2"><g id="レイヤー_1-2" data-name="レイヤー 1"><path class="cls-1" d="M64.35,0H5.42A5.42,5.42,0,0,0,0,5.42V52.75a5.42,5.42,0,0,0,5.42,5.42H64.35a5.42,5.42,0,0,0,5.42-5.42V5.42A5.42,5.42,0,0,0,64.35,0Zm2.11,52.75a2.11,2.11,0,0,1-2.11,2.1H5.42a2.1,2.1,0,0,1-2.1-2.1V5.42a2.1,2.1,0,0,1,2.1-2.1H64.35a2.11,2.11,0,0,1,2.11,2.1Z"/><path class="cls-1" d="M20.6,6.68h-11A2.87,2.87,0,0,0,6.68,9.55v7.29a2.87,2.87,0,0,0,2.87,2.87H20.6a2.87,2.87,0,0,0,2.88-2.87V9.55A2.87,2.87,0,0,0,20.6,6.68Zm.89,10.16a.89.89,0,0,1-.89.89h-11a.89.89,0,0,1-.88-.89V9.55a.89.89,0,0,1,.88-.89H20.6a.89.89,0,0,1,.89.89Z"/><path class="cls-1" d="M20.6,22h-11a2.88,2.88,0,0,0-2.87,2.88v25a2.88,2.88,0,0,0,2.87,2.87H20.6a2.87,2.87,0,0,0,2.87-2.87v-25A2.87,2.87,0,0,0,20.6,22Zm.89,27.88a.89.89,0,0,1-.89.88h-11a.88.88,0,0,1-.88-.88v-25A.88.88,0,0,1,9.55,24H20.6a.89.89,0,0,1,.89.89Z"/><path class="cls-1" d="M61.15,22h-33a2.88,2.88,0,0,0-2.87,2.88v25a2.88,2.88,0,0,0,2.87,2.87h33A2.88,2.88,0,0,0,64,49.84v-25A2.88,2.88,0,0,0,61.15,22ZM62,49.84a.89.89,0,0,1-.89.88h-33a.88.88,0,0,1-.88-.88v-25a.88.88,0,0,1,.88-.89h33a.89.89,0,0,1,.89.89Z"/><path class="cls-1" d="M63,8H26.29a1,1,0,0,0,0,2H63a1,1,0,1,0,0-2Z"/><path class="cls-1" d="M63,12.2H26.29a1,1,0,0,0,0,2H63a1,1,0,1,0,0-2Z"/><path class="cls-1" d="M63,16.41H26.29a1,1,0,0,0,0,2H63a1,1,0,1,0,0-2Z"/></g></g></svg>