<svg xmlns="http://www.w3.org/2000/svg" viewBox="0 0 46.31 49.39"><defs><style>.cls-1{fill:#005194;}</style></defs><title>アセット 19</title><g id="レイヤー_2" data-name="レイヤー 2"><g id="レイヤー_1-2" data-name="レイヤー 1"><path class="cls-1" d="M23.15,9.26A13.84,13.84,0,0,0,9.32,23.15c0,5.45,1.78,10.11,7.78,12.39v7.68a3,3,0,0,0,3,3.09,3.06,3.06,0,0,0,3.05,3.08c1.71,0,2.46-1.38,2.46-3.08,1.71,0,2.46-1.38,2.46-3.09V35.54c6-2.28,8.33-6.94,8.33-12.39C36.43,15.48,30.83,9.26,23.15,9.26Zm2,35h-5v-4h5Zm2.28-11.45-2.28.85v4.6h-5v-4.6l-1.72-.85a10.77,10.77,0,0,1,4.78-20.43,10.57,10.57,0,0,1,10.51,10.8A11,11,0,0,1,27.38,32.78Z"/><path class="cls-1" d="M21.61,6.17V1.54a1.55,1.55,0,0,1,3.09,0V6.17a1.55,1.55,0,1,1-3.09,0Z"/><path class="cls-1" d="M36.52,15.44a1.55,1.55,0,0,1,.56-2.11l4-2.32a1.55,1.55,0,0,1,1.54,2.68l-4,2.31a1.54,1.54,0,0,1-2.11-.56Z"/><path class="cls-1" d="M30.31,7.68l2.31-4a1.54,1.54,0,1,1,2.67,1.54L33,9.22a1.53,1.53,0,0,1-1.34.77,1.53,1.53,0,0,1-1.33-2.31Z"/><path class="cls-1" d="M9.79,30.87A1.55,1.55,0,0,1,9.22,33l-4,2.31a1.44,1.44,0,0,1-.77.21,1.54,1.54,0,0,1-.77-2.88l4-2.31A1.54,1.54,0,0,1,9.79,30.87Z"/><path class="cls-1" d="M6.17,24.7H1.54a1.55,1.55,0,0,1,0-3.09H6.17a1.55,1.55,0,1,1,0,3.09Z"/><path class="cls-1" d="M3.1,11.58A1.54,1.54,0,0,1,5.21,11l4,2.32a1.54,1.54,0,0,1-.78,2.88A1.57,1.57,0,0,1,7.68,16l-4-2.31A1.55,1.55,0,0,1,3.1,11.58Z"/><path class="cls-1" d="M11,5.21a1.55,1.55,0,0,1,2.68-1.54l2.31,4a1.55,1.55,0,1,1-2.68,1.54Z"/><path class="cls-1" d="M43.2,34.73a1.54,1.54,0,0,1-1.33.77,1.44,1.44,0,0,1-.77-.21l-4-2.31a1.55,1.55,0,0,1,1.54-2.68l4,2.32A1.54,1.54,0,0,1,43.2,34.73Z"/><path class="cls-1" d="M46.31,23.15a1.54,1.54,0,0,1-1.55,1.55H40.13a1.55,1.55,0,0,1,0-3.09h4.63A1.54,1.54,0,0,1,46.31,23.15Z"/></g></g></svg>