<svg xmlns="http://www.w3.org/2000/svg" viewBox="-8 -8 90 90"><defs><style>.cls-1{fill:#333;}</style></defs><title>solution08</title><g id="レイヤー_2" data-name="レイヤー 2"><g id="レイヤー_1-2" data-name="レイヤー 1"><path class="cls-1" d="M48,60.89,8,21A3.24,3.24,0,0,1,8,16.4l1.59-1.59L52.11,57.29a.88.88,0,0,0,1.25,0,.88.88,0,0,0,0-1.25L10.88,13.56l3.2-3.2L56.56,52.83a.88.88,0,0,0,1.25,0,.86.86,0,0,0,0-1.24L15.33,9.1l1.4-1.39a3.25,3.25,0,0,1,4.58,0L61.22,47.62a1.77,1.77,0,0,0,2.5-2.5L23.81,5.21a6.72,6.72,0,0,0-4.79-2h0a6.72,6.72,0,0,0-4.79,2L5.55,13.9a6.77,6.77,0,0,0,0,9.58L45.45,63.39a1.76,1.76,0,0,0,1.25.52A1.72,1.72,0,0,0,48,63.39,1.77,1.77,0,0,0,48,60.89Z"/><path class="cls-1" d="M67.4,49.07a1.72,1.72,0,0,0-3.32.89l2.49,9.3-6.78,6.79-9.3-2.5a1.72,1.72,0,0,0-.9,3.32L71,72.62a1.61,1.61,0,0,0,.44.06,1.73,1.73,0,0,0,1.22-.51,1.7,1.7,0,0,0,.44-1.65Z"/><path class="cls-1" d="M16.25,71.13,3.49,58.36l6.5-6.5,3.52,3.52a.86.86,0,0,0,.6.25.89.89,0,0,0,.6-.25.87.87,0,0,0,0-1.2l-3.53-3.52,5.59-5.59,3.52,3.52a.82.82,0,0,0,.6.25.85.85,0,0,0,.6-.25.84.84,0,0,0,0-1.19L18,43.88l1.47-1.48L17.05,40,.91,56.15a3.15,3.15,0,0,0,0,4.43L14,73.7a3.09,3.09,0,0,0,2.21.91,3.13,3.13,0,0,0,2.22-.91L34.6,57.56l-2.39-2.39Z"/><path class="cls-1" d="M73.72,14,60.6.89a3.2,3.2,0,0,0-4.43,0L40,17l2.39,2.39L43.91,18l3.51,3.51a.84.84,0,0,0,1.2-1.19L45.1,16.75l5.59-5.59,3.52,3.52a.83.83,0,0,0,1.19,0,.85.85,0,0,0,0-1.2L51.88,10l6.51-6.5L71.15,16.22l-16,16,2.39,2.4L73.72,18.44a3.13,3.13,0,0,0,0-4.43Z"/></g></g></svg>