<svg xmlns="http://www.w3.org/2000/svg" viewBox="-14 -10 90 90"><defs><style>.cls-1{fill:#333;}</style></defs><title>solution02</title><g id="レイヤー_2" data-name="レイヤー 2"><g id="レイヤー_1-2" data-name="レイヤー 1"><path class="cls-1" d="M12.24,25.93c.45,1.64,1.37,2.8,3.3,2.75a4.29,4.29,0,0,1,.12.5,14.85,14.85,0,0,0,7.78,10.26,8,8,0,0,0,7.6.41,14.84,14.84,0,0,0,8.14-8.76c.28-.76.45-1.56.66-2.34,1.95-.25,2.63-.72,3.37-3.08a13.53,13.53,0,0,0,.55-2.82c.19-2.19-.59-2.83-2.31-3,0,0-.08-.05,0,0l.87-4.64H41.21l.6-3.22h-1.4l.51-2.62L39.34,10l.59-3.34-2.07.71L37,4.11l-.93,1.18-2-3.64L32.9,3.71,31,.44,29.46,3.12,27.66,0,25.84,3.17,24.26.44,22.42,3.62,21.48,2,20,4.54,18.34,2.45l-.87,3.22L15.4,5,16,8.3l-1.59-.56.51,2.62H13.53l.6,3.22H13l.88,4.64v0c0,.55.09,1.1.11,1.65-2.1.4-2.69,1.11-2.44,3.06A20.83,20.83,0,0,0,12.24,25.93Z"/><path class="cls-1" d="M30.48,53.29c-.4-.89-.69-1.83-1.05-2.75.25-.18.45-.32.63-.47a5.55,5.55,0,0,0,2.21-4.41,2.1,2.1,0,0,0-1.85-2.37,19.94,19.94,0,0,0-4.5-.18c-2.41.19-3.27,1.52-2.67,3.86a4.7,4.7,0,0,0,.7,1.56c.55.74,1.23,1.39,1.92,2.16-.87,2.31-1.8,4.74-2.72,7.18l-.19,0L17,43c-2.71,1.59-5.65,2.3-8.54,3.18A33.7,33.7,0,0,0,3.74,48,6.3,6.3,0,0,0,0,54c0,1,.07,2.06,0,3.09A2.48,2.48,0,0,0,1.34,59.7a39.48,39.48,0,0,0,5.32,2.67,61.76,61.76,0,0,0,25.47,3.45c.87,0,1.73-.17,2.7-.27a18.56,18.56,0,0,1-3.06-7.2A21,21,0,0,0,30.48,53.29Z"/><path class="cls-1" d="M50.89,38.35a16.12,16.12,0,1,0,16,16.23A16.16,16.16,0,0,0,50.89,38.35Zm-.19,30A13.85,13.85,0,1,1,64.58,54.45,13.93,13.93,0,0,1,50.7,68.32Z"/><path class="cls-1" d="M56.06,50.4l-7.89,6.73L45.58,54a1.49,1.49,0,1,0-2.28,1.91l3.55,4.27a1.52,1.52,0,0,0,1,.53H48a1.48,1.48,0,0,0,1-.35l9-7.7a1.49,1.49,0,1,0-1.93-2.27Z"/></g></g></svg>