<svg xmlns="http://www.w3.org/2000/svg" viewBox="0 0 160 130"><defs><style>.cls-1{fill:#fff;}</style></defs><title>solution2_02</title><g id="レイヤー_2" data-name="レイヤー 2"><g id="レイヤー_1-2" data-name="レイヤー 1"><path class="cls-1" d="M136.66,48.49A15.85,15.85,0,0,0,121,61.84H108.84A15.86,15.86,0,0,0,95.69,48.7V18.31h21.47a15.84,15.84,0,1,0,0-4.94H90.74V48.7A15.83,15.83,0,0,0,77.55,62.17H56.08a28.1,28.1,0,1,0,0,4.29h7.46v43.76H88.48a15.83,15.83,0,1,0,0-4.94h-20V66.46h9.06a15.81,15.81,0,0,0,31.29.33H121a15.83,15.83,0,1,0,15.63-18.3ZM132.79,6.93a8.91,8.91,0,1,1-8.91,8.9A8.91,8.91,0,0,1,132.79,6.93ZM28.09,83A18.73,18.73,0,1,1,46.82,64.32,18.75,18.75,0,0,1,28.09,83Zm76,15.8a8.91,8.91,0,1,1-8.91,8.91A8.92,8.92,0,0,1,104.1,98.84ZM93.22,73.22a8.91,8.91,0,1,1,8.9-8.9A8.91,8.91,0,0,1,93.22,73.22Zm43.44,0a8.91,8.91,0,1,1,8.9-8.9A8.91,8.91,0,0,1,136.66,73.22Z"/></g></g></svg>