<svg xmlns="http://www.w3.org/2000/svg" viewBox="0 0 192.91 40"><defs><style>.cls-1{fill:#fff}</style></defs><g id="レイヤー_2" data-name="レイヤー 2"><g id="レイヤー_1-2" data-name="レイヤー 1"><path class="cls-1" d="M143.34 1.48h17.42v.75h-4.87v36.21h4.87v.74h-19.32v-.74h6.77V2.23h-4.87zM49.44 2.23v-.75H32.02v.75h4.87v17.36H25.25v.75h11.64v18.1h-4.87v.74h17.42v-.74h-4.87V2.23h4.87zM20.72 2.45v-1H0v9.7h.69C2.75 4 5.62 2.23 10.86 2.23H13v36.21H8.17v.74h17.42v-.74h-4.87zM161.19 24.25h12.72l6.14 14.19h-4.93v.74h17.79v-.74h-4.55L171.68 0l-4.08 9.53 6 14h-12.14zM79.74 35.94a13.81 13.81 0 0 1-9.53 3.27c-10.18 0-11.38-10.1-11.38-17.78 0-1.81.08-2.93.08-4.05l.09-1.21c.51-7.5 2.5-14.82 10.26-14.82a7.33 7.33 0 0 1 5.45 2l.17.19a7 7 0 0 1 1.39 2.07A8.1 8.1 0 0 1 77 7.76a13.94 13.94 0 0 1 .33 3.16 7.8 7.8 0 0 1-.48 2.68 8.78 8.78 0 0 1-2.2 3.57 10 10 0 0 1-5.26 3.18 46.28 46.28 0 0 1-8.22.56v.74H65a35.54 35.54 0 0 0 3.84-.24 19.69 19.69 0 0 0 6.64-2.2 12.14 12.14 0 0 0 3.9-2.93c1.8-2 3.7-3.09 3.7-5.11a6.81 6.81 0 0 0-.69-3.58l-.16-.23A14.85 14.85 0 0 0 69.61.64C58.74.64 50.2 10.31 50.2 20.49 50.2 32.21 58.56 40 70.12 40c4.91 0 8.15-1.47 10.31-3.36z"/><path class="cls-1" d="M141.49 39.18v-.75c-2.49 0-2.44-1.15-3.13-10-.58-7.63-4.71-8.37-11.6-9.59v-.26c4.77-.37 10.43-2.54 10.43-8.21 0-7-7.42-8.9-13-8.9h-11.7v.74h9.83c4.83 0 6.71 2.55 6.71 8.74 0 3.87-.53 7.63-6.88 7.63H120v.74h3.5c6.56 0 6.83 5.56 7.09 11.33.16 3.7 2.13 8.52 8.22 8.52zM96.46.67a19.67 19.67 0 1 0 19.67 19.67A19.67 19.67 0 0 0 96.46.67zm4 23.66C92.71 32 84.69 36.38 82.5 34.18s2.3-10.18 10-17.83 15.74-12.06 17.92-9.86-2.29 10.19-10 17.84z"/></g></g></svg>