<svg xmlns="http://www.w3.org/2000/svg" viewBox="-7 -15 90 90"><defs><style>.cls-1{fill:#333}</style></defs><g id="レイヤー_2" data-name="レイヤー 2"><g id="レイヤー_1-2" data-name="レイヤー 1"><path class="cls-1" d="M82.21 36c0-11.22-12.12-20.31-27.07-20.31S28.06 24.74 28.06 36s12.13 20.3 27.08 20.3a35.63 35.63 0 0 0 5.22-.38c1.16 1.41 6.14 6.26 11.43 7.13h.43a1.52 1.52 0 0 0 1.53-1.53 1.58 1.58 0 0 0-.12-.61c-1-1.71-3.26-5-3.26-8v-.13C77.51 49.1 82.21 42.94 82.21 36zm-13.4 13.74a3.38 3.38 0 0 0-1.84 3v.31a13.21 13.21 0 0 0 1.21 5A22.64 22.64 0 0 1 63 53.73a3.38 3.38 0 0 0-2.62-1.23 2.69 2.69 0 0 0-.49 0 33.05 33.05 0 0 1-4.73.35c-13.06 0-23.69-7.59-23.69-16.92S42.08 19 55.14 19s23.69 7.63 23.69 17c0 5.38-3.74 10.54-10.02 13.74z"/><path class="cls-1" d="M55.14 34.55a2.34 2.34 0 1 0 2.34 2.34 2.34 2.34 0 0 0-2.34-2.34zM45.16 34.55a2.34 2.34 0 1 0 2.34 2.34 2.34 2.34 0 0 0-2.34-2.34zM64.61 34.55A2.34 2.34 0 1 0 67 36.89a2.34 2.34 0 0 0-2.39-2.34zM27.07 3.38c9.57 0 17.81 4.08 21.55 9.92 1.19-.17 2.43-.27 3.68-.33C48.37 5.39 38.57 0 27.07 0 12.12 0 0 9.09 0 20.3c0 7 4.7 13.15 11.86 16.8v.13c0 3-2.27 6.3-3.26 8a1.54 1.54 0 0 0 1.4 2.15h.43c5.29-.87 10.27-5.73 11.43-7.14a36.37 36.37 0 0 0 4.09.35 16.85 16.85 0 0 1-.88-3.42c-.9-.06-1.81-.14-2.72-.27a2.7 2.7 0 0 0-.49 0 3.4 3.4 0 0 0-2.62 1.24A22.66 22.66 0 0 1 14 42.37a13.31 13.31 0 0 0 1.22-5v-.31a3.36 3.36 0 0 0-1.84-3c-6.28-3.21-10-8.36-10-13.79C3.38 11 14 3.38 27.07 3.38z"/></g></g></svg>