<svg xmlns="http://www.w3.org/2000/svg" viewBox="-35 -25 160 130"><defs><style>.cls-1{fill:#fff;fill-rule:evenodd}</style></defs><g id="レイヤー_2" data-name="レイヤー 2"><g id="レイヤー_1-2" data-name="レイヤー 1"><path class="cls-1" d="M85.39 0H7.58C2.11 0 0 2.15 0 7.65v66.48c0 5.73 2.05 7.8 7.72 7.81h77.81c5.25 0 7.41-2.2 7.42-7.48Q93 41 93 7.65C93 2.15 90.86 0 85.39 0zm-2 4.08q3.5-.08 3.68 3.45c-.08 2.32-1.23 3.56-3.61 3.53-2.23 0-3.36-1.23-3.38-3.44s1.03-3.45 3.28-3.53zm-9.84 0A3.23 3.23 0 0 1 77 7.57a3.32 3.32 0 0 1-3.77 3.49C71 11 69.79 9.75 69.82 7.61c.03-2.29 1.37-3.54 3.7-3.51zm-10.27 0c2.22 0 3.3 1.3 3.5 3.43-.15 2.13-1.09 3.45-3.38 3.54s-3.8-1.22-3.85-3.4 1.32-3.58 3.7-3.54zm24.11 67.6C87.39 76 87.34 76 83 76c-24.5 0-49 0-73.49.07-2.91 0-3.95-.83-3.94-3.7q.09-27.4 0-54.82c0-2.22 1-2.43 2.78-2.43h75.94c2.25 0 3.23.37 3.21 3-.16 17.88-.09 35.7-.11 53.56z"/><path class="cls-1" d="M53.92 50.69c1.51.68 2.69.37 2.49-1.63-.27-2.71.9-4.21 3.54-4.78.79-.17 2.34-.71 1.56-1.68-2.31-2.8-2.61-5.32 0-8 .06 0 .07-.18.1-.28a1.22 1.22 0 0 0-1.1-1.26c-3.15-.41-4.21-2.36-4.13-5.3 0-1.71-1.1-1.8-2.29-1.32-2.32.95-4.1.64-5.41-1.72-.94-1.71-2.07-1.8-3.11 0-1.19 2.08-2.88 2.74-5.16 1.78-1.75-.72-2.84-.29-2.58 1.81.28 2.46-.73 3.9-3.15 4.39s-2.57 1.68-1 3.34 1.49 3.44 0 5.14-1.08 2.78 1 3.22c2.43.51 3.49 1.89 3.22 4.34s1 2.63 2.78 1.84c2.2-1 3.69-.39 4.82 1.66 1.06 1.88 2.32 1.89 3.38 0 1.18-2.1 2.78-2.56 5.04-1.55zM52.3 55.05c-1.24-.26-1.86.53-2.54 1.29a1 1 0 0 0 0 1.57q5.33 5.58 10.64 11.2l.69-.33c0-1.91.06-3.82 0-5.73-.06-1.46.55-1.94 2-1.95 2 0 4 .3 6.3-.36l-10-9.17c-.97 2.92-3.49 4.22-7.09 3.48zM38.6 55.1a5 5 0 0 1-5.6-2.17c-.33-.47-.74-1.19-1.42-.51-2.65 2.67-5.25 5.37-8.21 8.4 3.2.64 6.3-.77 7.86.77 1.73 1.69.28 4.84.68 7.33 0 .07.1.13.4.46 3-3.16 5.89-6.13 8.64-9.25.74-.84 2.77-1.36 1.67-3-.85-1.32-1.95-2.55-4.02-2.03z"/></g></g></svg>