<svg xmlns="http://www.w3.org/2000/svg" viewBox="0 0 160 130"><g data-name="レイヤー 2"><path d="M136.66 48.49A15.85 15.85 0 0 0 121 61.84h-12.16A15.86 15.86 0 0 0 95.69 48.7V18.31h21.47a15.84 15.84 0 1 0 0-4.94H90.74V48.7a15.83 15.83 0 0 0-13.19 13.47H56.08a28.1 28.1 0 1 0 0 4.29h7.46v43.76h24.94a15.83 15.83 0 1 0 0-4.94h-20V66.46h9.06a15.81 15.81 0 0 0 31.29.33H121a15.83 15.83 0 1 0 15.63-18.3zm-3.87-41.56a8.91 8.91 0 1 1-8.91 8.9 8.91 8.91 0 0 1 8.91-8.9zM28.09 83a18.73 18.73 0 1 1 18.73-18.68A18.75 18.75 0 0 1 28.09 83zm76 15.8a8.91 8.91 0 1 1-8.91 8.91 8.92 8.92 0 0 1 8.92-8.87zM93.22 73.22a8.91 8.91 0 1 1 8.9-8.9 8.91 8.91 0 0 1-8.9 8.9zm43.44 0a8.91 8.91 0 1 1 8.9-8.9 8.91 8.91 0 0 1-8.9 8.9z" fill="#fff" data-name="レイヤー 1"/></g></svg>