<svg xmlns="http://www.w3.org/2000/svg" viewBox="-15 -15 90 90"><defs><style>.cls-1{fill:#333}</style></defs><g id="レイヤー_2" data-name="レイヤー 2"><g id="レイヤー_1-2" data-name="レイヤー 1"><g id="like"><path class="cls-1" d="M60.94 34.49v-1.4A6.57 6.57 0 0 0 59.27 29a7.17 7.17 0 0 0 .73-4.52 8.94 8.94 0 0 0-2.54-5.27 7.43 7.43 0 0 0 0-5.19 8.51 8.51 0 0 0-3.12-4.92 6.26 6.26 0 0 0 0-3.35 15.86 15.86 0 0 0-.81-2C52.13 1.25 49.84 0 46.67 0H36.25a56.89 56.89 0 0 0-11.37 1.3c-4.51 1-6.63 1.54-7.72 1.81h-.09l-.45.12h-.09A5.67 5.67 0 0 0 11.45 0H5.73A5.71 5.71 0 0 0 0 5.71v30.47a5.73 5.73 0 0 0 5.71 5.72h5.71a6 6 0 0 0 3.81-1.52l-.1.08c.2.09 1.54.75 2 1 6.39 3.36 7.58 10 7.62 13.82A5.74 5.74 0 0 0 30.46 61c4.4 0 9.38-6 9.38-12.84a28.21 28.21 0 0 0-.47-6.26c8.19-.21 13.79-.2 16.17-.82a7.06 7.06 0 0 0 5.4-6.59zm-47.61 1.7a1.9 1.9 0 0 1-1.91 1.9H5.71a1.91 1.91 0 0 1-1.9-1.91V5.71a1.9 1.9 0 0 1 1.9-1.9h5.71a1.91 1.91 0 0 1 1.91 1.91zm43.8-1.7a2.92 2.92 0 0 1-2.26 2.91c-1.68.44-1.55.72-20.59.7 1.57 4.71 1.76 5.49 1.76 10 0 5-3.57 9-5.58 9a1.91 1.91 0 0 1-1.91-1.9c-.07-6.49-2.72-14.39-11.41-18-.12-.05-.28-.09-.39-.14a2.06 2.06 0 0 1-1.52-2V8.76c0-1.4 1.62-1.67 1.62-1.67.49-.14.91-.29 8.82-2.1a53.08 53.08 0 0 1 10.58-1.16h10.41c2 0 2.89.63 3.47 1.67a10.79 10.79 0 0 1 .53 1.37 2 2 0 0 1-2 2.68h-3a1 1 0 0 0 0 1.91h3.1c4 0 4.42 1.78 5 3.71.46 1.46.74 3.91-2.47 3.91h-3.67a.95.95 0 1 0 0 1.9h4.52c3.22 0 3.88 2.69 4.12 4.11a2.89 2.89 0 0 1-3 3.51h-3.74a1 1 0 1 0 0 1.91h3.81c3.33 0 3.72 1.85 3.76 2.79.02.63.04.54.04 1.19z"/><path class="cls-1" d="M11.44 8.57a2.86 2.86 0 1 0-2.86 2.86 2.85 2.85 0 0 0 2.86-2.86zm-1.9 0a1 1 0 1 1-.95-1 1 1 0 0 1 .95 1z"/></g></g></g></svg>