<svg xmlns="http://www.w3.org/2000/svg" viewBox="0 0 260.29 95"><defs><style>.cls-2{fill:#005194}</style></defs><g id="レイヤー_2" data-name="レイヤー 2"><g id="レイヤー_1-2" data-name="レイヤー 1"><path d="M250.93 2H13.32a7 7 0 0 0-7 7v51a7 7 0 0 0 7 7h11L2 93l52.85-26h196.08a7.32 7.32 0 0 0 7.36-7V9a7.32 7.32 0 0 0-7.36-7z" fill="none" stroke="#00579d" stroke-linejoin="round" stroke-width="4"/><path class="cls-2" d="M41.91 27.8v-4h3v4h5.95v2.68h-5.98v3.45a17.65 17.65 0 0 1 3.95-.44c4.87 0 7.3 2.4 7.3 6.47 0 3.86-2.37 6.39-7.3 6.39a18 18 0 0 1-2-.13l.17-2.79a14.17 14.17 0 0 0 1.93.13c3.15 0 4.28-1.23 4.28-3.63S51.64 36 48.25 36a13.5 13.5 0 0 0-3.37.47v5.56c0 2.9-1.14 4.36-3.8 4.36-3.42 0-5.46-1.8-5.46-4 0-3.06 2.56-5.93 6.29-7.55v-4.36H36V27.8zM38.36 42c0 .94.76 1.69 2.17 1.69 1 0 1.38-.49 1.38-1.72v-4.2C39.8 39 38.36 40.61 38.36 42zM58.3 30.88l-2.09 1.95a20.67 20.67 0 0 0-4.65-4.28l1.86-1.95a28.09 28.09 0 0 1 4.88 4.28zM74.5 43.79v-7.25h-6.91v-2.69h6.91v-5.64c-1.82.4-3.65.71-5.27.92l-1.3-2.51a35 35 0 0 1-1.46 3.26v17.38h-2.85v-12.5c-.73 1-1.48 2-2.29 3-.68-.86-1.23-1.59-1.78-2.32A32.39 32.39 0 0 0 66.15 23l2.8.68a30.59 30.59 0 0 1-1 2.92 45.71 45.71 0 0 0 13.65-3.47l1.8 2.27a38.32 38.32 0 0 1-6 2.08v6.37h6.78v2.69h-6.75v7.25h6v2.69h-15v-2.69zM91.42 31v-6.13h3c-.06 1.88-.08 3.91-.08 5.87l8.09-.65c0-2.19-.08-4.57-.19-6.29h3c0 1.67.06 3.89.06 6.05l4.25-.33.21 2.71c-1.26.05-2.79.16-4.46.29-.08 6.55-.66 7.75-3.84 7.75a27.09 27.09 0 0 1-2.95-.21v-2.5a20.25 20.25 0 0 0 2.35.13c1.23 0 1.51-.32 1.57-4.93-2.64.2-5.43.44-8.09.67 0 2.74 0 5.09.15 6.53.21 2.81 1.52 3.65 6.53 3.62a41.8 41.8 0 0 0 5.27-.34v2.93c-1.46.1-3.55.18-5.22.18-6.58 0-9.08-1.28-9.47-6.05-.11-1.47-.18-3.79-.18-6.61-1.75.19-3.32.34-4.65.47l-.26-2.66c1.3-.15 3-.31 4.91-.5zM130.69 25.29a88.52 88.52 0 0 1-10.6 9.63.55.55 0 0 0-.23.39.42.42 0 0 0 .21.37 76.89 76.89 0 0 1 11.63 9.1l-2.7 2.3c-2.87-3.26-7.88-7.18-12.7-10.36a1.44 1.44 0 0 1-.71-1.25 2 2 0 0 1 .94-1.51 79.42 79.42 0 0 0 11.59-10.7zM144.78 27c.13-1.07.26-2.13.34-3.15l3.08.15c-.11 1-.24 2-.39 3h7.33v2.74h-7.78c-1.15 6.19-3.05 12.58-5.24 16.7l-2.77-1.38c2.19-3.76 4-9.65 5-15.32H140V27zm7.88 12.32a5.31 5.31 0 0 0-.78 2.38c0 1.14 1.9 1.51 5.09 1.51a24.49 24.49 0 0 0 4-.34v2.79c-1.35.13-2.68.18-4 .18-4.75 0-7.91-.91-7.91-3.39a8.71 8.71 0 0 1 1-3.63zm8-4.83c-1-.1-2.25-.13-3.55-.13a50.77 50.77 0 0 0-6.45.42l-.15-2.66c1.93-.21 4.64-.31 6.86-.34 1.23 0 2.38 0 3.29.08zm-3.47-10.12a17 17 0 0 1 2.79 3.29l-1.46 1.17a15.54 15.54 0 0 0-2.74-3.26zm3.08-1.88a17.24 17.24 0 0 1 2.73 3.3L161.56 27a16.53 16.53 0 0 0-2.74-3.29zM166.34 28.76c1.12 0 2.37.08 3.81.08 2.08 0 4.43-.05 6.73-.21a40.85 40.85 0 0 1-1-4.54l3.13-.31a29.56 29.56 0 0 0 .86 4.62 51.46 51.46 0 0 0 6.66-1l.6 2.69a56 56 0 0 1-6.42.91 18.74 18.74 0 0 0 4.33 6.79l-1.8 2.06a18.57 18.57 0 0 0-8.9-2.14c-2.53 0-3.83 1.17-3.83 2.87 0 2 2.29 3.26 7.75 3.26a40.36 40.36 0 0 0 4.09-.24l-.15 2.77c-1.39.1-2.77.16-3.89.16-7.46 0-10.8-2.3-10.8-6.19 0-3 2.58-5.19 6.31-5.19a24.52 24.52 0 0 1 6.37.86 20.55 20.55 0 0 1-2.48-4.75c-2.79.18-5.64.26-8.22.26h-3.18zM195.75 27.25a48.11 48.11 0 0 0-.4 5.56c0 5.71 1.73 9.18 3.29 9.18.89 0 1.75-1.67 2.25-4.12l2.53 1.13c-1 4.25-2.56 6.37-4.65 6.37-3 0-6.42-4.15-6.42-12.47 0-1.78.08-3.79.26-5.93zm12.86-.86c3.89 4 5.14 8.27 5.35 14.22l-3.26.29c-.06-5.9-1.18-9.4-4.62-12.87zM230.37 41.47v3.6H227v-3.6zm0-16.44v6.89l-.37 6.73h-2.71l-.29-6.73V25z"/></g></g></svg>