<svg xmlns="http://www.w3.org/2000/svg" viewBox="-15 -15 90 90"><g data-name="レイヤー 2"><path d="M42.3 0c-3.47 0-6.2 2.39-8.16 6.07-2.84 5.57-7.07 9.18-11.72 9.18H6.77C3 15.23 0 19 0 23.69s3 8.46 6.77 8.46a3.39 3.39 0 0 1 3.37 3.39v15.22a3.39 3.39 0 0 0 3.39 3.39h6.77a3.38 3.38 0 0 0 3.38-3.39v-1.69c0-1.69-1.69-2.45-1.69-3.38V33.84v-.1a1.68 1.68 0 0 1 .19-.67.78.78 0 0 1 .1-.15 1.59 1.59 0 0 1 .51-.49 1.58 1.58 0 0 1 .45-.14c4.27.45 8.13 3.9 10.79 9.09 2 3.67 4.68 6.05 8.15 6.05 7.78 0 11.85-11.92 11.85-23.69S50.08 0 42.3 0zm-8.46 23.69a49 49 0 0 1 .28-5.08h4.8c1.87 0 3.38 2.28 3.38 5.08s-1.51 5.08-3.38 5.08h-4.8a48.79 48.79 0 0 1-.28-5.08zm-30.46 0c0-2.8 1.52-5.08 3.39-5.08h11.87a7.85 7.85 0 0 0-1.72 5.08 7.81 7.81 0 0 0 1.72 5.08H6.77c-1.87 0-3.39-2.27-3.39-5.08zM20.3 50.76h-6.77V35.54a6.71 6.71 0 0 0-.91-3.39h6.27a5.13 5.13 0 0 0-.28 1.67v11.87a5.07 5.07 0 0 0 1.45 3.36l.24.28zm2.08-22H22c-1.87 0-3.39-2.27-3.39-5.08S20.13 18.6 22 18.6h.38a13.83 13.83 0 0 0 8.81-3.41 49.85 49.85 0 0 0 0 17 13.83 13.83 0 0 0-8.81-3.4zM42.3 44c-3.41 0-6.34-4.86-7.68-11.85h4.3c3.79 0 6.77-3.71 6.77-8.46s-3-8.46-6.77-8.46h-4.3C36 8.25 38.89 3.38 42.3 3.38c4.68 0 8.46 9.1 8.46 20.31S47 44 42.3 44z" fill="#333" data-name="レイヤー 1"/></g></svg>