<svg xmlns="http://www.w3.org/2000/svg" viewBox="-20 -20 160 130"><defs><style>.cls-1{fill:#fff;fill-rule:evenodd}</style></defs><g id="レイヤー_2" data-name="レイヤー 2"><g id="レイヤー_1-2" data-name="レイヤー 1"><g id="suNduz"><path class="cls-1" d="M0 38c1.41-1.3 2-1.31 3.34.05q8.6 8.65 17.16 17.36c2.95-1.47 5.67-1.58 8 .68s2.33 4.76 1 7.71c3.07-1.26 5.76-1.22 8 1.2 2 2.17 1.84 4.63.7 7.42 2.85-1.32 5.44-1.24 7.64.86s2.21 4.67 1.08 7.57c3.19-1.31 5.9-.95 8 1.57 1.92 2.29 1.71 4.8.36 7.4C57 91.53 58.7 93.3 60.49 95a4.35 4.35 0 0 0 6.2-.15 4.24 4.24 0 0 0-.06-6.17C62.83 84.82 59 81 55.14 77.22c-.34-.34-.88-.67-1-1.06a3 3 0 0 1 .2-2.11c.32-.37 1.33-.31 2-.2.4.06.73.58 1.07.92l11.43 11.32a4.51 4.51 0 0 0 6.45.2 4.42 4.42 0 0 0-.11-6.29c-3.71-3.78-7.5-7.49-11.26-11.22-.3-.3-.61-.6-.9-.92-.73-.76-1-1.77-.07-2.34a2.66 2.66 0 0 1 2.38 0 26.86 26.86 0 0 1 3.22 3.1c3.08 3.06 6.11 6.15 9.24 9.16a4.23 4.23 0 0 0 5.17.65 4.13 4.13 0 0 0 2.12-4.61 5.69 5.69 0 0 0-1.45-2.57c-3.7-3.8-7.47-7.52-11.22-11.27a10.9 10.9 0 0 1-.89-.91c-.61-.78-.76-1.75.09-2.25a2.46 2.46 0 0 1 2.23 0c1.64 1.35 3.1 2.93 4.62 4.44 2.5 2.49 5 5 7.5 7.49 2.12 2.11 4.74 2.2 6.67.27a4.65 4.65 0 0 0-.43-6.57C82.08 52.46 72 42.45 62 32.28c-3.89-4-9.92-3.11-12.44 2.38-1.32 2.85-2.46 5.78-3.77 8.64-1.48 3.26-4.25 4.72-8 4.31a7 7 0 0 1-6.1-5.94 9 9 0 0 1 .57-4.5c3-7.14 6.1-14.21 9.21-21.28 2.91-6.61 9.77-9.37 16.65-7.15C66 11.28 74 13.47 81.86 15.84a4.26 4.26 0 0 1 1.78.95q11.9 11.61 23.72 23.28a6.42 6.42 0 0 1 .43.48L91.51 57.23c1 .93 2 1.86 3 2.83 2.51 2.48 3.48 5.4 2.12 8.75a7.44 7.44 0 0 1-7.4 4.88h-.55A8.71 8.71 0 0 1 86.35 80 7.93 7.93 0 0 1 80 82.27a8.58 8.58 0 0 1-2.34 6.36 8.18 8.18 0 0 1-6 2.33 40 40 0 0 1-1.47 4.66c-1.09 2.36-3.36 3.26-5.66 4h-1.91c-4.42-.9-6.58-4.79-9.95-7.56-.9 1-1.76 2-2.69 2.93-1.85 1.88-3.52 4-6.3 4.63h-1.61c-2.93-.89-5-2.61-5.27-5.85a17.54 17.54 0 0 1 .52-3.67 5.93 5.93 0 0 1-7-.7c-2.47-2.12-2.58-4.82-1.31-8-2.93 1.33-5.48 1.2-7.63-.89s-2.21-4.76-1.13-7.48a2.08 2.08 0 0 0-.45 0c-3.4 1.21-6.3.42-7.91-2.16-1.73-2.76-1.26-5.59 1.38-8.21 1.66-1.65 3.37-3.25 5.08-4.9-.37-.42-.57-.67-.79-.9Q9.15 48.5.74 40.11a5 5 0 0 0-.74-.53zM124.61 29c-2.38 2.5-4.69 5.08-7.19 7.47-1.31 1.25-2.93 1-4.36-.11a8.67 8.67 0 0 1-.82-.78Q100.59 24 89 12.36c-2.23-2.22-2.25-3.8-.07-6 1.61-1.64 3.23-3.28 4.88-4.88 2-1.94 3.74-1.93 5.69 0Q111.27 13.25 123.07 25a19.08 19.08 0 0 1 1.54 2z"/></g></g></g></svg>