<svg xmlns="http://www.w3.org/2000/svg" viewBox="-20 -15 90 90"><defs><style>.cls-1{fill:#333}</style></defs><g id="レイヤー_2" data-name="レイヤー 2"><g id="レイヤー_1-2" data-name="レイヤー 1"><path class="cls-1" d="M12.32 13.87a2.43 2.43 0 1 0 2.43 2.43 2.42 2.42 0 0 0-2.43-2.43zM12.32 23a2.43 2.43 0 1 0 2.43 2.43A2.42 2.42 0 0 0 12.32 23zM12.32 32.11a2.43 2.43 0 1 0 2.43 2.43 2.42 2.42 0 0 0-2.43-2.43zM12.32 41.23a2.43 2.43 0 1 0 2.43 2.43 2.42 2.42 0 0 0-2.43-2.43zM39.6 14.73H20.3a1.57 1.57 0 1 0 0 3.13h19.3a1.57 1.57 0 0 0 0-3.13zM39.6 23.85H20.3a1.57 1.57 0 1 0 0 3.13h19.3a1.57 1.57 0 0 0 0-3.13zM39.6 33H20.3a1.57 1.57 0 1 0 0 3.13h19.3a1.57 1.57 0 0 0 0-3.13zM39.6 42.1H20.3a1.57 1.57 0 1 0 0 3.13h19.3a1.57 1.57 0 0 0 0-3.13z"/><path class="cls-1" d="M48 0H3a3 3 0 0 0-3 3v53.9a3 3 0 0 0 3 3h45a3 3 0 0 0 3-3V3a3 3 0 0 0-3-3zm.52 56.93a.52.52 0 0 1-.52.52H3a.52.52 0 0 1-.52-.52V3A.52.52 0 0 1 3 2.51h45a.52.52 0 0 1 .52.52z"/></g></g></svg>