<svg xmlns="http://www.w3.org/2000/svg" viewBox="-8 -18 90 90"><g data-name="レイヤー 2"><path d="M64.61 48.05H4.06V29.52l1.68.85a6.72 6.72 0 0 0-.34 2 6.93 6.93 0 0 0 13.86 0 6.86 6.86 0 0 0-.9-3.36l5.37-4.37a6.84 6.84 0 0 0 9.37.05l4.62 4a6.78 6.78 0 0 0-.87 3.31 6.93 6.93 0 1 0 12-4.74l7.11-10.57a6.74 6.74 0 0 0 2.8.61 7 7 0 1 0-4.8-2l-7 10.49a6.74 6.74 0 0 0-7.66 1l-4.66-4a6.82 6.82 0 0 0 .82-3.2 6.93 6.93 0 0 0-13.86 0 6.86 6.86 0 0 0 .78 3.12l-5.46 4.44a6.83 6.83 0 0 0-10 1.07l-2.76-1.4V2A2 2 0 1 0 0 2v48a2 2 0 0 0 2 2h62.61a2 2 0 1 0 0-4.06zM58.72 5.81a4.53 4.53 0 1 1-4.53 4.52 4.52 4.52 0 0 1 4.53-4.52zM38.39 27.66zm9.55-1.21zm-4.16 1A4.53 4.53 0 1 1 39.25 32a4.52 4.52 0 0 1 4.53-4.56zm-9.88-3.62zm-5.45-8.76a4.53 4.53 0 1 1-4.53 4.53 4.53 4.53 0 0 1 4.53-4.53zM23 23.77s-.06-.01 0 0zM17.69 28zm-5.36-.19a4.53 4.53 0 1 1-4.53 4.57 4.53 4.53 0 0 1 4.53-4.53zm-6.15 1.4z" fill="#333" data-name="レイヤー 1"/></g></svg>